<svg width="9" height="15" viewBox="0 0 9 15" fill="none" xmlns="http://www.w3.org/2000/svg">
<mask id="path-1-inside-1_532_86836" fill="white">
<path d="M0 0.430421C0 0.192706 0.192706 0 0.430422 0H2.88232V2.88232H0V0.430421Z"/>
</mask>
<path d="M0 0.430421C0 0.192706 0.192706 0 0.430422 0H2.88232V2.88232H0V0.430421Z" fill="white" stroke="#2563EB" mask="url(#path-1-inside-1_532_86836)"/>
<mask id="path-2-inside-2_532_86836" fill="white">
<path d="M2.88086 2.88281H5.33276C5.57048 2.88281 5.76318 3.07552 5.76318 3.31323V5.76513H2.88086V2.88281Z"/>
</mask>
<path d="M2.88086 2.88281H5.33276C5.57048 2.88281 5.76318 3.07552 5.76318 3.31323V5.76513H2.88086V2.88281Z" fill="white" stroke="#2563EB" mask="url(#path-2-inside-2_532_86836)"/>
<mask id="path-3-inside-3_532_86836" fill="white">
<path d="M5.76367 5.76562H8.21557C8.45329 5.76562 8.64599 5.95833 8.64599 6.19605V8.64795H5.76367V5.76562Z"/>
</mask>
<path d="M5.76367 5.76562H8.21557C8.45329 5.76562 8.64599 5.95833 8.64599 6.19605V8.64795H5.76367V5.76562Z" fill="white" stroke="#2563EB" mask="url(#path-3-inside-3_532_86836)"/>
<mask id="path-4-inside-4_532_86836" fill="white">
<path d="M2.88086 9.07691C2.88086 8.83919 3.07357 8.64648 3.31128 8.64648H5.76318V11.5288H2.88086V9.07691Z"/>
</mask>
<path d="M2.88086 9.07691C2.88086 8.83919 3.07357 8.64648 3.31128 8.64648H5.76318V11.5288H2.88086V9.07691Z" fill="white" stroke="#2563EB" mask="url(#path-4-inside-4_532_86836)"/>
<mask id="path-5-inside-5_532_86836" fill="white">
<path d="M0 11.5312H2.88232V14.4136H0.430421C0.192706 14.4136 0 14.2209 0 13.9832V11.5312Z"/>
</mask>
<path d="M0 11.5312H2.88232V14.4136H0.430421C0.192706 14.4136 0 14.2209 0 13.9832V11.5312Z" fill="white" stroke="#2563EB" mask="url(#path-5-inside-5_532_86836)"/>
</svg>
