<svg width="12" height="12" viewBox="0 0 12 12" fill="none" xmlns="http://www.w3.org/2000/svg">
<path fill-rule="evenodd" clip-rule="evenodd" d="M6 1.125C3.30761 1.125 1.125 3.30761 1.125 6C1.125 8.69243 3.30761 10.875 6 10.875C8.69243 10.875 10.875 8.69243 10.875 6C10.875 3.30761 8.69243 1.125 6 1.125ZM0 6C0 2.68629 2.68629 0 6 0C9.31373 0 12 2.68629 12 6C12 9.31373 9.31373 12 6 12C2.68629 12 0 9.31373 0 6ZM4.875 5.8125C4.875 5.50184 5.12684 5.25 5.4375 5.25H6.1875C6.49816 5.25 6.75 5.50184 6.75 5.8125V7.875H6.9375C7.24816 7.875 7.5 8.12685 7.5 8.4375C7.5 8.74815 7.24816 9 6.9375 9H5.4375C5.12684 9 4.875 8.74815 4.875 8.4375C4.875 8.12685 5.12684 7.875 5.4375 7.875H5.625V6.375H5.4375C5.12684 6.375 4.875 6.12316 4.875 5.8125ZM6 4.5C6.41422 4.5 6.75 4.16421 6.75 3.75C6.75 3.33579 6.41422 3 6 3C5.58579 3 5.25 3.33579 5.25 3.75C5.25 4.16421 5.58579 4.5 6 4.5Z" fill="#24292E"/>
</svg>
