<svg width="39" height="41" viewBox="0 0 39 41" fill="none" xmlns="http://www.w3.org/2000/svg">
<rect width="39" height="41" rx="10" fill="white"/>
<path d="M29.2395 10.002H10.8837C10.6471 9.99089 10.4106 10.0266 10.1879 10.107C9.96508 10.1874 9.76034 10.311 9.58537 10.4706C9.4104 10.6302 9.26863 10.8228 9.16819 11.0373C9.06774 11.2518 9.01059 11.484 9 11.7206V30.1164C9.01386 30.6115 9.21678 31.0827 9.56708 31.4329C9.91738 31.7832 10.3885 31.9861 10.8837 32H29.2395C29.7209 31.9786 30.1748 31.7693 30.5038 31.4172C30.8328 31.0651 31.0108 30.5982 30.9995 30.1164V11.7206C31.0035 11.4903 30.9603 11.2616 30.8727 11.0486C30.7851 10.8356 30.6549 10.6427 30.4901 10.4818C30.3253 10.3209 30.1294 10.1953 29.9144 10.1128C29.6993 10.0303 29.4697 9.99258 29.2395 10.002ZM15.8748 28.3428H12.6712V18.54H15.8748V28.3428ZM14.3486 17.0551C14.1251 17.0629 13.9023 17.0243 13.6944 16.9419C13.4864 16.8595 13.2977 16.735 13.1402 16.5762C12.9827 16.4174 12.8597 16.2277 12.779 16.0191C12.6983 15.8105 12.6616 15.5875 12.6712 15.364C12.6613 15.1381 12.6987 14.9126 12.7811 14.7021C12.8635 14.4915 12.9889 14.3005 13.1495 14.1413C13.31 13.982 13.5021 13.8581 13.7133 13.7774C13.9245 13.6968 14.1503 13.6612 14.3761 13.6729C14.5997 13.6651 14.8224 13.7036 15.0304 13.786C15.2384 13.8684 15.427 13.993 15.5845 14.1518C15.7421 14.3106 15.8651 14.5002 15.9458 14.7089C16.0265 14.9175 16.0632 15.1405 16.0536 15.364C16.0635 15.5899 16.026 15.8153 15.9437 16.0259C15.8613 16.2365 15.7358 16.4275 15.5753 16.5867C15.4147 16.746 15.2227 16.8699 15.0115 16.9505C14.8002 17.0312 14.5744 17.0668 14.3486 17.0551ZM27.3421 28.3428H24.1247V22.9808C24.1247 21.7022 23.6709 20.8223 22.5297 20.8223C22.1752 20.8253 21.8302 20.9379 21.5423 21.1447C21.2543 21.3515 21.0373 21.6422 20.921 21.9772C20.8316 22.2282 20.7942 22.4948 20.811 22.7608V28.3428H17.6486V18.54H20.811V19.9149C21.0922 19.3983 21.5106 18.9696 22.0201 18.676C22.5297 18.3824 23.1105 18.2354 23.6984 18.2512C25.7746 18.2512 27.3421 19.6261 27.3421 22.5546V28.3428Z" fill="black"/>
</svg>
