<svg width="32" height="32" viewBox="0 0 32 32" fill="none" xmlns="http://www.w3.org/2000/svg">
<path d="M0 16C0 7.16344 7.16344 0 16 0C24.8366 0 32 7.16344 32 16C32 24.8366 24.8366 32 16 32C7.16344 32 0 24.8366 0 16Z" fill="#4EA6FF"/>
<path d="M16.0007 22.6663C19.6825 22.6663 22.6673 19.6816 22.6673 15.9997C22.6673 12.3178 19.6825 9.33301 16.0007 9.33301C12.3188 9.33301 9.33398 12.3178 9.33398 15.9997C9.33398 19.6816 12.3188 22.6663 16.0007 22.6663Z" stroke="white" stroke-width="1.33333" stroke-linecap="round" stroke-linejoin="round"/>
<path d="M14 16.0003L15.3333 17.3337L18 14.667" stroke="white" stroke-width="1.33333" stroke-linecap="round" stroke-linejoin="round"/>
</svg>
