<svg width="582" height="741" viewBox="0 0 582 741" fill="none" xmlns="http://www.w3.org/2000/svg">
<mask id="path-1-inside-1_115_1372" fill="white">
<path d="M550 0C561.201 0 566.802 -0.00016655 571.08 2.17969C574.843 4.09712 577.903 7.15678 579.82 10.9199C582 15.1982 582 20.799 582 32V741H552.482C551.566 736.787 547.818 733.631 543.33 733.631C538.842 733.631 535.093 736.787 534.177 741H525.414C524.497 736.787 520.75 733.631 516.262 733.631C511.774 733.631 508.025 736.787 507.108 741H498.346C497.429 736.787 493.681 733.631 489.193 733.631C484.705 733.631 480.957 736.787 480.04 741H471.277C470.361 736.787 466.613 733.631 462.125 733.631C457.637 733.631 453.888 736.787 452.972 741H444.209C443.292 736.787 439.544 733.631 435.057 733.631C430.569 733.631 426.82 736.787 425.903 741H417.141C416.224 736.787 412.476 733.631 407.988 733.631C403.5 733.631 399.752 736.787 398.835 741H390.072C389.156 736.787 385.408 733.631 380.92 733.631C376.432 733.631 372.683 736.787 371.767 741H363.004C362.087 736.787 358.339 733.631 353.852 733.631C349.364 733.631 345.615 736.787 344.698 741H335.936C335.019 736.787 331.271 733.631 326.783 733.631C322.295 733.631 318.547 736.787 317.63 741H308.867C307.951 736.787 304.203 733.631 299.715 733.631C295.227 733.631 291.478 736.787 290.562 741H281.799C280.882 736.787 277.134 733.631 272.646 733.631C268.159 733.631 264.41 736.787 263.493 741H254.73C253.814 736.787 250.066 733.631 245.578 733.631C241.09 733.631 237.341 736.787 236.425 741H227.662C226.745 736.787 222.998 733.631 218.51 733.631C214.022 733.631 210.273 736.787 209.356 741H200.594C199.677 736.787 195.929 733.631 191.441 733.631C186.953 733.631 183.205 736.787 182.288 741H173.525C172.609 736.787 168.861 733.631 164.373 733.631C159.885 733.631 156.136 736.787 155.22 741H146.457C145.54 736.787 141.792 733.631 137.305 733.631C132.817 733.631 129.068 736.787 128.151 741H119.389C118.472 736.787 114.724 733.631 110.236 733.631C105.748 733.631 102 736.787 101.083 741H92.3203C91.4037 736.787 87.6557 733.631 83.168 733.631C78.68 733.631 74.9313 736.787 74.0146 741H65.252C64.3353 736.787 60.5874 733.631 56.0996 733.631C51.6117 733.631 47.8629 736.787 46.9463 741H38.1836C37.2669 736.787 33.519 733.631 29.0312 733.631C24.5433 733.631 20.7946 736.787 19.8779 741H0V32C0 20.799 -0.000182186 15.1982 2.17969 10.9199C4.0971 7.15681 7.15684 4.09716 10.9199 2.17969C15.1981 -0.000168298 20.7991 0 32 0H550Z"/>
</mask>
<path d="M550 0C561.201 0 566.802 -0.00016655 571.08 2.17969C574.843 4.09712 577.903 7.15678 579.82 10.9199C582 15.1982 582 20.799 582 32V741H552.482C551.566 736.787 547.818 733.631 543.33 733.631C538.842 733.631 535.093 736.787 534.177 741H525.414C524.497 736.787 520.75 733.631 516.262 733.631C511.774 733.631 508.025 736.787 507.108 741H498.346C497.429 736.787 493.681 733.631 489.193 733.631C484.705 733.631 480.957 736.787 480.04 741H471.277C470.361 736.787 466.613 733.631 462.125 733.631C457.637 733.631 453.888 736.787 452.972 741H444.209C443.292 736.787 439.544 733.631 435.057 733.631C430.569 733.631 426.82 736.787 425.903 741H417.141C416.224 736.787 412.476 733.631 407.988 733.631C403.5 733.631 399.752 736.787 398.835 741H390.072C389.156 736.787 385.408 733.631 380.92 733.631C376.432 733.631 372.683 736.787 371.767 741H363.004C362.087 736.787 358.339 733.631 353.852 733.631C349.364 733.631 345.615 736.787 344.698 741H335.936C335.019 736.787 331.271 733.631 326.783 733.631C322.295 733.631 318.547 736.787 317.63 741H308.867C307.951 736.787 304.203 733.631 299.715 733.631C295.227 733.631 291.478 736.787 290.562 741H281.799C280.882 736.787 277.134 733.631 272.646 733.631C268.159 733.631 264.41 736.787 263.493 741H254.73C253.814 736.787 250.066 733.631 245.578 733.631C241.09 733.631 237.341 736.787 236.425 741H227.662C226.745 736.787 222.998 733.631 218.51 733.631C214.022 733.631 210.273 736.787 209.356 741H200.594C199.677 736.787 195.929 733.631 191.441 733.631C186.953 733.631 183.205 736.787 182.288 741H173.525C172.609 736.787 168.861 733.631 164.373 733.631C159.885 733.631 156.136 736.787 155.22 741H146.457C145.54 736.787 141.792 733.631 137.305 733.631C132.817 733.631 129.068 736.787 128.151 741H119.389C118.472 736.787 114.724 733.631 110.236 733.631C105.748 733.631 102 736.787 101.083 741H92.3203C91.4037 736.787 87.6557 733.631 83.168 733.631C78.68 733.631 74.9313 736.787 74.0146 741H65.252C64.3353 736.787 60.5874 733.631 56.0996 733.631C51.6117 733.631 47.8629 736.787 46.9463 741H38.1836C37.2669 736.787 33.519 733.631 29.0312 733.631C24.5433 733.631 20.7946 736.787 19.8779 741H0V32C0 20.799 -0.000182186 15.1982 2.17969 10.9199C4.0971 7.15681 7.15684 4.09716 10.9199 2.17969C15.1981 -0.000168298 20.7991 0 32 0H550Z" fill="white"/>
<path d="M571.08 2.17969L571.534 1.28868V1.28868L571.08 2.17969ZM579.82 10.9199L580.711 10.4659V10.4659L579.82 10.9199ZM582 741V742H583V741H582ZM552.482 741L551.505 741.213L551.677 742H552.482V741ZM543.33 733.631L543.33 732.631H543.33V733.631ZM534.177 741V742H534.983L535.154 741.213L534.177 741ZM525.414 741L524.437 741.213L524.608 742H525.414V741ZM516.262 733.631L516.262 732.631H516.262V733.631ZM507.108 741V742H507.914L508.086 741.213L507.108 741ZM498.346 741L497.369 741.213L497.54 742H498.346V741ZM489.193 733.631L489.193 732.631H489.193V733.631ZM480.04 741V742H480.846L481.017 741.213L480.04 741ZM471.277 741L470.3 741.213L470.472 742H471.277V741ZM462.125 733.631L462.125 732.631H462.125V733.631ZM452.972 741V742H453.777L453.949 741.213L452.972 741ZM444.209 741L443.232 741.213L443.403 742H444.209V741ZM435.057 733.631L435.057 732.631H435.057V733.631ZM425.903 741V742H426.709L426.88 741.213L425.903 741ZM417.141 741L416.163 741.213L416.335 742H417.141V741ZM407.988 733.631L407.988 732.631H407.988V733.631ZM398.835 741V742H399.641L399.812 741.213L398.835 741ZM390.072 741L389.095 741.213L389.266 742H390.072V741ZM380.92 733.631L380.92 732.631H380.92V733.631ZM371.767 741V742H372.572L372.744 741.213L371.767 741ZM363.004 741L362.027 741.213L362.198 742H363.004V741ZM353.852 733.631L353.852 732.631H353.852V733.631ZM344.698 741V742H345.504L345.675 741.213L344.698 741ZM335.936 741L334.958 741.213L335.13 742H335.936V741ZM326.783 733.631L326.783 732.631H326.783V733.631ZM317.63 741V742H318.436L318.607 741.213L317.63 741ZM308.867 741L307.89 741.213L308.061 742H308.867V741ZM299.715 733.631L299.715 732.631H299.715V733.631ZM290.562 741V742H291.367L291.539 741.213L290.562 741ZM281.799 741L280.822 741.213L280.993 742H281.799V741ZM272.646 733.631L272.647 732.631H272.646V733.631ZM263.493 741V742H264.299L264.47 741.213L263.493 741ZM254.73 741L253.753 741.213L253.925 742H254.73V741ZM245.578 733.631L245.578 732.631H245.578V733.631ZM236.425 741V742H237.231L237.402 741.213L236.425 741ZM227.662 741L226.685 741.213L226.856 742H227.662V741ZM218.51 733.631L218.51 732.631H218.51V733.631ZM209.356 741V742H210.162L210.334 741.213L209.356 741ZM200.594 741L199.617 741.213L199.788 742H200.594V741ZM191.441 733.631L191.441 732.631H191.441V733.631ZM182.288 741V742H183.094L183.265 741.213L182.288 741ZM173.525 741L172.548 741.213L172.72 742H173.525V741ZM164.373 733.631L164.373 732.631H164.373V733.631ZM155.22 741V742H156.026L156.197 741.213L155.22 741ZM146.457 741L145.48 741.213L145.651 742H146.457V741ZM137.305 733.631L137.305 732.631H137.305V733.631ZM128.151 741V742H128.957L129.129 741.213L128.151 741ZM119.389 741L118.412 741.213L118.583 742H119.389V741ZM110.236 733.631L110.236 732.631H110.236V733.631ZM101.083 741V742H101.889L102.06 741.213L101.083 741ZM92.3203 741L91.3432 741.213L91.5145 742H92.3203V741ZM83.168 733.631L83.168 732.631H83.168V733.631ZM74.0146 741V742H74.8205L74.9918 741.213L74.0146 741ZM65.252 741L64.2748 741.213L64.4461 742H65.252V741ZM56.0996 733.631L56.0996 732.631H56.0996V733.631ZM46.9463 741V742H47.7521L47.9234 741.213L46.9463 741ZM38.1836 741L37.2065 741.213L37.3778 742H38.1836V741ZM29.0312 733.631L29.0313 732.631H29.0312V733.631ZM19.8779 741V742H20.6838L20.8551 741.213L19.8779 741ZM0 741H-1V742H0V741ZM2.17969 10.9199L1.28868 10.4659L1.28868 10.4659L2.17969 10.9199ZM10.9199 2.17969L10.4659 1.28868L10.4659 1.28869L10.9199 2.17969ZM32 0V-1V0ZM550 0V1C555.617 1 559.77 1.00074 563.055 1.26908C566.328 1.53647 568.651 2.06457 570.626 3.0707L571.08 2.17969L571.534 1.28868C569.23 0.114946 566.614 -0.446791 563.218 -0.724282C559.832 -1.00082 555.584 -1 550 -1V0ZM571.08 2.17969L570.626 3.07069C574.201 4.89225 577.108 7.79893 578.929 11.3739L579.82 10.9199L580.711 10.4659C578.698 6.51464 575.485 3.30199 571.534 1.28868L571.08 2.17969ZM579.82 10.9199L578.929 11.3739C579.935 13.3485 580.464 15.672 580.731 18.9453C580.999 22.2303 581 26.383 581 32H582H583C583 26.416 583.001 22.1678 582.724 18.7825C582.447 15.3855 581.885 12.7695 580.711 10.4659L579.82 10.9199ZM582 32H581V741H582H583V32H582ZM582 741V740H552.482V741V742H582V741ZM552.482 741L553.46 740.787C552.445 736.125 548.299 732.631 543.33 732.631L543.33 733.631L543.33 734.631C547.337 734.631 550.686 737.449 551.505 741.213L552.482 741ZM543.33 733.631V732.631C538.362 732.631 534.214 736.125 533.2 740.787L534.177 741L535.154 741.213C535.973 737.449 539.323 734.631 543.33 734.631V733.631ZM534.177 741V740H525.414V741V742H534.177V741ZM525.414 741L526.391 740.787C525.377 736.125 521.23 732.631 516.262 732.631L516.262 733.631L516.262 734.631C520.269 734.631 523.618 737.449 524.437 741.213L525.414 741ZM516.262 733.631V732.631C511.293 732.631 507.146 736.125 506.131 740.787L507.108 741L508.086 741.213C508.904 737.449 512.254 734.631 516.262 734.631V733.631ZM507.108 741V740H498.346V741V742H507.108V741ZM498.346 741L499.323 740.787C498.308 736.125 494.162 732.631 489.193 732.631L489.193 733.631L489.193 734.631C493.2 734.631 496.55 737.449 497.369 741.213L498.346 741ZM489.193 733.631V732.631C484.225 732.631 480.077 736.125 479.063 740.787L480.04 741L481.017 741.213C481.836 737.449 485.186 734.631 489.193 734.631V733.631ZM480.04 741V740H471.277V741V742H480.04V741ZM471.277 741L472.254 740.787C471.24 736.125 467.093 732.631 462.125 732.631L462.125 733.631L462.125 734.631C466.132 734.631 469.481 737.449 470.3 741.213L471.277 741ZM462.125 733.631V732.631C457.156 732.631 453.009 736.125 451.995 740.787L452.972 741L453.949 741.213C454.768 737.449 458.118 734.631 462.125 734.631V733.631ZM452.972 741V740H444.209V741V742H452.972V741ZM444.209 741L445.186 740.787C444.172 736.125 440.025 732.631 435.057 732.631L435.057 733.631L435.057 734.631C439.064 734.631 442.413 737.449 443.232 741.213L444.209 741ZM435.057 733.631V732.631C430.088 732.631 425.941 736.125 424.926 740.787L425.903 741L426.88 741.213C427.699 737.449 431.049 734.631 435.057 734.631V733.631ZM425.903 741V740H417.141V741V742H425.903V741ZM417.141 741L418.118 740.787C417.103 736.125 412.957 732.631 407.988 732.631L407.988 733.631L407.988 734.631C411.995 734.631 415.345 737.449 416.163 741.213L417.141 741ZM407.988 733.631V732.631C403.02 732.631 398.872 736.125 397.858 740.787L398.835 741L399.812 741.213C400.631 737.449 403.981 734.631 407.988 734.631V733.631ZM398.835 741V740H390.072V741V742H398.835V741ZM390.072 741L391.049 740.787C390.035 736.125 385.888 732.631 380.92 732.631L380.92 733.631L380.92 734.631C384.927 734.631 388.276 737.449 389.095 741.213L390.072 741ZM380.92 733.631V732.631C375.951 732.631 371.804 736.125 370.789 740.787L371.767 741L372.744 741.213C373.563 737.449 376.913 734.631 380.92 734.631V733.631ZM371.767 741V740H363.004V741V742H371.767V741ZM363.004 741L363.981 740.787C362.967 736.125 358.82 732.631 353.852 732.631L353.852 733.631L353.852 734.631C357.859 734.631 361.208 737.449 362.027 741.213L363.004 741ZM353.852 733.631V732.631C348.883 732.631 344.736 736.125 343.721 740.787L344.698 741L345.675 741.213C346.494 737.449 349.844 734.631 353.852 734.631V733.631ZM344.698 741V740H335.936V741V742H344.698V741ZM335.936 741L336.913 740.787C335.898 736.125 331.752 732.631 326.783 732.631L326.783 733.631L326.783 734.631C330.79 734.631 334.14 737.449 334.958 741.213L335.936 741ZM326.783 733.631V732.631C321.815 732.631 317.667 736.125 316.653 740.787L317.63 741L318.607 741.213C319.426 737.449 322.776 734.631 326.783 734.631V733.631ZM317.63 741V740H308.867V741V742H317.63V741ZM308.867 741L309.844 740.787C308.83 736.125 304.683 732.631 299.715 732.631L299.715 733.631L299.715 734.631C303.722 734.631 307.071 737.449 307.89 741.213L308.867 741ZM299.715 733.631V732.631C294.746 732.631 290.599 736.125 289.584 740.787L290.562 741L291.539 741.213C292.358 737.449 295.707 734.631 299.715 734.631V733.631ZM290.562 741V740H281.799V741V742H290.562V741ZM281.799 741L282.776 740.787C281.762 736.125 277.615 732.631 272.647 732.631L272.646 733.631L272.646 734.631C276.654 734.631 280.003 737.449 280.822 741.213L281.799 741ZM272.646 733.631V732.631C267.678 732.631 263.53 736.125 262.516 740.787L263.493 741L264.47 741.213C265.289 737.449 268.639 734.631 272.646 734.631V733.631ZM263.493 741V740H254.73V741V742H263.493V741ZM254.73 741L255.708 740.787C254.693 736.125 250.547 732.631 245.578 732.631L245.578 733.631L245.578 734.631C249.585 734.631 252.934 737.449 253.753 741.213L254.73 741ZM245.578 733.631V732.631C240.61 732.631 236.462 736.125 235.448 740.787L236.425 741L237.402 741.213C238.221 737.449 241.571 734.631 245.578 734.631V733.631ZM236.425 741V740H227.662V741V742H236.425V741ZM227.662 741L228.639 740.787C227.625 736.125 223.478 732.631 218.51 732.631L218.51 733.631L218.51 734.631C222.517 734.631 225.866 737.449 226.685 741.213L227.662 741ZM218.51 733.631V732.631C213.541 732.631 209.394 736.125 208.379 740.787L209.356 741L210.334 741.213C211.152 737.449 214.502 734.631 218.51 734.631V733.631ZM209.356 741V740H200.594V741V742H209.356V741ZM200.594 741L201.571 740.787C200.556 736.125 196.41 732.631 191.441 732.631L191.441 733.631L191.441 734.631C195.448 734.631 198.798 737.449 199.617 741.213L200.594 741ZM191.441 733.631V732.631C186.473 732.631 182.325 736.125 181.311 740.787L182.288 741L183.265 741.213C184.084 737.449 187.434 734.631 191.441 734.631V733.631ZM182.288 741V740H173.525V741V742H182.288V741ZM173.525 741L174.503 740.787C173.488 736.125 169.342 732.631 164.373 732.631L164.373 733.631L164.373 734.631C168.38 734.631 171.729 737.449 172.548 741.213L173.525 741ZM164.373 733.631V732.631C159.405 732.631 155.257 736.125 154.243 740.787L155.22 741L156.197 741.213C157.016 737.449 160.366 734.631 164.373 734.631V733.631ZM155.22 741V740H146.457V741V742H155.22V741ZM146.457 741L147.434 740.787C146.42 736.125 142.273 732.631 137.305 732.631L137.305 733.631L137.305 734.631C141.312 734.631 144.661 737.449 145.48 741.213L146.457 741ZM137.305 733.631V732.631C132.336 732.631 128.189 736.125 127.174 740.787L128.151 741L129.129 741.213C129.947 737.449 133.297 734.631 137.305 734.631V733.631ZM128.151 741V740H119.389V741V742H128.151V741ZM119.389 741L120.366 740.787C119.351 736.125 115.205 732.631 110.236 732.631L110.236 733.631L110.236 734.631C114.243 734.631 117.593 737.449 118.412 741.213L119.389 741ZM110.236 733.631V732.631C105.268 732.631 101.12 736.125 100.106 740.787L101.083 741L102.06 741.213C102.879 737.449 106.229 734.631 110.236 734.631V733.631ZM101.083 741V740H92.3203V741V742H101.083V741ZM92.3203 741L93.2975 740.787C92.283 736.125 88.1364 732.631 83.168 732.631L83.168 733.631L83.1679 734.631C87.175 734.631 90.5243 737.449 91.3432 741.213L92.3203 741ZM83.168 733.631V732.631C78.1994 732.631 74.052 736.125 73.0375 740.787L74.0146 741L74.9918 741.213C75.8106 737.449 79.1606 734.631 83.168 734.631V733.631ZM74.0146 741V740H65.252V741V742H74.0146V741ZM65.252 741L66.2291 740.787C65.2147 736.125 61.0681 732.631 56.0996 732.631L56.0996 733.631L56.0996 734.631C60.1067 734.631 63.456 737.449 64.2748 741.213L65.252 741ZM56.0996 733.631V732.631C51.1311 732.631 46.9836 736.125 45.9691 740.787L46.9463 741L47.9234 741.213C48.7423 737.449 52.0923 734.631 56.0996 734.631V733.631ZM46.9463 741V740H38.1836V741V742H46.9463V741ZM38.1836 741L39.1607 740.787C38.1463 736.125 33.9997 732.631 29.0313 732.631L29.0312 733.631L29.0312 734.631C33.0383 734.631 36.3876 737.449 37.2065 741.213L38.1836 741ZM29.0312 733.631V732.631C24.0627 732.631 19.9152 736.125 18.9008 740.787L19.8779 741L20.8551 741.213C21.6739 737.449 25.0239 734.631 29.0312 734.631V733.631ZM19.8779 741V740H0V741V742H19.8779V741ZM0 741H1V32H0H-1V741H0ZM0 32H1C1 26.383 1.00073 22.2303 1.26907 18.9453C1.53646 15.672 2.06457 13.3485 3.07069 11.3739L2.17969 10.9199L1.28868 10.4659C0.114939 12.7695 -0.446799 15.3855 -0.724288 18.7825C-1.00082 22.1678 -1 26.416 -1 32H0ZM2.17969 10.9199L3.07069 11.3739C4.89223 7.79897 7.79899 4.89229 11.3739 3.07069L10.9199 2.17969L10.4659 1.28869C6.51469 3.30202 3.30198 6.51465 1.28868 10.4659L2.17969 10.9199ZM10.9199 2.17969L11.3739 3.07069C13.3485 2.06457 15.6721 1.53647 18.9454 1.26908C22.2303 1.00074 26.383 1 32 1V0V-1C26.4161 -1 22.1678 -1.00082 18.7825 -0.724282C15.3856 -0.446792 12.7695 0.114945 10.4659 1.28868L10.9199 2.17969ZM32 0V1H550V0V-1H32V0Z" fill="#4EA6FF" mask="url(#path-1-inside-1_115_1372)"/>
</svg>
