<svg width="28" height="30" viewBox="0 0 28 30" fill="none" xmlns="http://www.w3.org/2000/svg">
<path d="M22.6688 0.604497L22.6842 0.604497L22.6987 0.6021L22.6988 0.602085L22.699 0.602037L22.6993 0.602004L22.6995 0.601964L22.7003 0.601854L22.7111 0.600479C22.7214 0.599256 22.7381 0.597543 22.7608 0.596038C22.8061 0.593028 22.875 0.590854 22.9643 0.59509C23.1426 0.603561 23.402 0.637653 23.7155 0.742031C24.3401 0.949998 25.1919 1.44102 26.0498 2.58911C26.8987 3.72512 27.0363 4.78143 26.9672 5.54989C26.9325 5.93587 26.8454 6.25124 26.7674 6.46908C26.7285 6.57791 26.692 6.66207 26.6657 6.71816C26.6525 6.74619 26.6419 6.76717 26.6349 6.78067L26.6272 6.79524L26.6255 6.79821L26.6255 6.79823L26.6254 6.7984L26.6254 6.79851L26.6253 6.7986L26.6239 6.8011L23.6602 12.2347C23.5011 12.5263 23.069 12.5163 22.9227 12.2143C22.4016 11.1385 21.5268 9.41259 20.5435 7.80687C20.052 7.00408 19.5314 6.22832 19.0128 5.57774C18.4963 4.93003 17.9721 4.39393 17.4708 4.08311C16.203 3.29708 14.5155 2.81829 12.8197 3.0355C11.1171 3.25359 9.41848 4.17224 8.14212 6.15752C6.85369 8.16156 7.01771 10.2788 7.7879 12.0073C8.55422 13.7272 9.93141 15.0884 11.1182 15.597C12.2505 16.0823 13.1148 16.2512 13.8418 16.3933C13.8566 16.3961 13.8713 16.399 13.8859 16.4019C14.622 16.5458 15.1977 16.6653 15.7986 17.0535C17.7337 18.3035 18.358 20.6998 17.2096 22.6875C16.6395 23.6743 15.8303 24.3005 14.9044 24.5795C13.9766 24.8591 12.9186 24.7937 11.8493 24.3725C10.959 24.0218 10.2396 23.521 9.57474 22.6662C9.49941 22.5693 9.30955 22.2532 9.02606 21.7526C8.74657 21.2592 8.38433 20.6017 7.9684 19.8364C7.13665 18.3062 6.09174 16.3482 5.06803 14.4172C4.04437 12.4864 3.04214 10.583 2.29581 9.16241C1.92264 8.4521 1.61347 7.86248 1.39758 7.45044L1.14739 6.97269L1.08165 6.84704L1.06481 6.81486L1.06056 6.80672L1.05992 6.80551C0.210234 5.1048 0.543641 3.50887 1.05758 2.56665C1.30319 2.11637 1.8585 1.62274 2.51374 1.23879C3.16833 0.855227 3.88282 0.604495 4.42419 0.604495L22.6688 0.604497Z" fill="#6FFF90" stroke="#1A3E35" stroke-width="0.375"/>
<path d="M4.50139 29.3955L4.48593 29.3955L4.47151 29.3979L4.47141 29.3979L4.47112 29.398L4.47092 29.398L4.47067 29.398L4.46983 29.3981L4.45911 29.3995C4.44874 29.4007 4.43202 29.4025 4.40938 29.404C4.36407 29.407 4.29512 29.4091 4.20591 29.4049C4.02757 29.3964 3.7682 29.3623 3.45469 29.258C2.83003 29.05 1.97829 28.559 1.12038 27.4109C0.271486 26.2749 0.133881 25.2186 0.202968 24.4501C0.237669 24.0641 0.3248 23.7488 0.402742 23.5309C0.44168 23.4221 0.478209 23.3379 0.504513 23.2818C0.51766 23.2538 0.528235 23.2328 0.535255 23.2193L0.542988 23.2048L0.544619 23.2018L0.544659 23.2018L0.544724 23.2016L0.544787 23.2015L0.544834 23.2014L0.546223 23.1989L3.51001 17.7653C3.66911 17.4736 4.10113 17.4837 4.24743 17.7857C4.76856 18.8615 5.64335 20.5874 6.62662 22.1931C7.1182 22.9959 7.63872 23.7717 8.15741 24.4223C8.67382 25.07 9.1981 25.6061 9.69941 25.9169C10.9672 26.7029 12.6547 27.1817 14.3504 26.9645C16.053 26.7464 17.7517 25.8278 19.0281 23.8425C20.3165 21.8384 20.1525 19.7212 19.3823 17.9927C18.616 16.2728 17.2388 14.9116 16.052 14.403C14.9197 13.9177 14.0553 13.7488 13.3283 13.6067L13.2842 13.5981C12.5482 13.4542 11.9725 13.3347 11.3716 12.9465C9.4365 11.6964 8.81221 9.30022 9.96057 7.31246C10.5306 6.32568 11.3399 5.69945 12.2658 5.42046C13.1936 5.14091 14.2516 5.20623 15.3208 5.62745C16.2111 5.97817 16.9306 6.47895 17.5954 7.33378C17.6708 7.43063 17.8606 7.74682 18.1441 8.24733C18.4236 8.74077 18.7858 9.39832 19.2018 10.1635C20.0335 11.6938 21.0784 13.6518 22.1021 15.5828C23.1258 17.5136 24.128 19.4169 24.8744 20.8376C25.2475 21.5479 25.5567 22.1375 25.7726 22.5496L26.0228 23.0273L26.0885 23.1529L26.1054 23.1851L26.1096 23.1933L26.1102 23.1945C26.9599 24.8952 26.6265 26.4911 26.1126 27.4333C25.867 27.8836 25.3117 28.3773 24.6564 28.7612C24.0018 29.1448 23.2873 29.3955 22.746 29.3955L4.50139 29.3955Z" fill="#6FFF90" stroke="#1A3E35" stroke-width="0.375"/>
</svg>
