<svg fill="none" height="1474" viewBox="0 0 1176 1474" width="1176" xmlns="http://www.w3.org/2000/svg"><g fill="#e6dafe"><path d="m734.994 589.59c0 81.401-65.821 147.402-147 147.402v147.401c162.358 0 294-132.001 294-294.803 0-162.801-131.642-294.803-294-294.803-53.521 0-103.785 14.334-147 39.467-87.895 50.934-147 146.202-147 255.336v737.01l132.173 132.53 14.827 14.87v-884.41c0-81.401 65.821-147.401 147-147.401s147 66 147 147.401z"/><path d="m588 0c-107.109 0-207.502 28.7336-294 78.9342-55.383 32.0668-104.981 72.9338-147 120.7348-91.4844 103.934-147 240.469-147 389.937v442.204l147 147.4v-589.604c0-130.934 56.779-248.602 147-329.603 42.418-38.001 92.216-68.001 147-87.334 45.942-16.401 95.474-25.267 147-25.267 243.537 0 441 198.002 441 442.204 0 244.203-197.463 442.204-441 442.204v147.4c324.783 0 588-264 588-589.604 0-325.603-263.217-589.606-588-589.606z"/></g></svg>