<svg height="400" viewBox="0 0 400 400" width="400" xmlns="http://www.w3.org/2000/svg"><g fill-rule="evenodd"><path d="m71.75 43.343c-.302.046-.55.174-.55.284s-.172.145-.383.078-.442-.026-.514.09-.214.16-.317.096c-.102-.063-.186-.019-.186.097 0 .117-.23.212-.512.212-.336 0-.463.079-.369.231.091.147.055.176-.101.08-.134-.082-.395-.013-.581.155-.185.168-.402.289-.481.27-.078-.02-.318.114-.533.298-.214.183-.442.281-.506.216-.064-.064-.117-.031-.117.074 0 .104-.272.35-.604.546-.331.196-.55.443-.485.548.065.106.045.167-.046.137-.211-.07-63.756 63.471-63.931 63.928-.072.188-.215.29-.318.227-.179-.111-.538.629-.456.94.022.083-.04.15-.137.15-.289 0-.466.806-.531 2.425-.064 1.568.212 3.175.544 3.175.103 0 .132.09.064.2s-.028.2.088.2c.117 0 .212.123.212.274 0 .724 2.724 2.694 3.894 2.816.333.035.741.12.906.188.429.178 321.337.03 322.3-.149 1.556-.289 3.87-1.187 4.143-1.609.078-.121.213-.226.3-.234.432-.039 1.257-.584 1.257-.83 0-.154.099-.218.22-.144.128.079 6.843-6.513 16.05-15.757 39.005-39.161 48.53-48.776 48.53-48.991 0-.127.059-.171.132-.099.187.187.718-.623.568-.865-.068-.11-.028-.2.088-.2.117 0 .212-.175.212-.388 0-.214.081-.439.181-.5.254-.157.232-3.312-.023-3.312-.113 0-.158-.18-.1-.4.057-.22.023-.4-.077-.4-.099 0-.171-.068-.159-.15.043-.302-.274-1.05-.445-1.05-.097 0-.177-.119-.177-.265 0-.263-.809-1.135-1.053-1.135-.069 0-.367-.223-.662-.496-.294-.273-.604-.454-.687-.402-.084.051-.263-.039-.398-.202s-.319-.25-.409-.195c-.09.056-.22.01-.289-.101-.121-.197-322.258-.256-323.552-.061m-66.95 117.051c-.165.094-.728.321-1.251.505s-.901.417-.838.518c.062.101-.014.183-.168.183-.412 0-1.12.847-1.671 2-.078.165-.226.356-.327.424s-.198.36-.215.65c-.016.289-.102.526-.19.526-.843.001.432 5.214 1.415 5.787.19.11.3.2.245.2s10.961 11.05 24.48 24.556c36.158 36.123 38.886 38.857 38.77 38.857-.178 0 1.601 1.36 2.142 1.639.28.143.553.307.608.363.055.057.55.322 1.1.59.55.267 1.081.527 1.181.578.099.05.117-.011.04-.136-.078-.126.291-.027.819.219l.96.447 161.1-.009c88.605-.005 161.415-.058 161.8-.118 1.014-.158 1.6-.373 1.6-.586 0-.103.175-.187.389-.187.213 0 .528-.2.7-.445.171-.244.311-.367.311-.273 0 .095.199-.088.443-.405s.491-.622.55-.677c1.204-1.126 1.57-4.884.648-6.642-.215-.408-.446-.686-.515-.617-.07.069-.126-.024-.126-.208 0-.183-.09-.333-.2-.333s-.2-.086-.2-.192c0-.275-64.046-64.319-64.256-64.253-.095.03-.122-.029-.059-.13.141-.228-2.149-1.695-2.342-1.501-.047.047-.2-.052-.339-.219-.139-.168-.407-.305-.595-.305s-.404-.062-.479-.137c-.8-.8 7.505-.759-163.43-.8-88.99-.022-161.935.038-162.1.131m68.172 118.301c-.051.051-.381.115-.732.141-.352.027-.64.112-.64.189s-.158.114-.35.083-.462.033-.6.142c-.137.11-.25.132-.25.05s-.127-.043-.283.086c-.155.129-.527.279-.827.333-.73.132-1.69.642-1.69.898 0 .114-.077.159-.17.101-.547-.338-65.832 64.711-66.741 66.501-.592 1.165-.953 4.781-.478 4.781.117 0 .158.088.092.196-.146.235.945 2.249 1.21 2.235.103-.005.297.201.432.458.237.451 1.813 1.511 2.37 1.593.151.022.336.102.412.178.31.31 322.903.133 323.973-.177.55-.16 1.09-.316 1.2-.346.11-.031.38-.156.6-.277s.473-.218.563-.216c.272.008 1.537-.724 1.537-.889 0-.085.139-.155.308-.155.473 0-.953 1.405 33.389-32.907 21.415-21.396 32.63-32.738 33.009-33.384.752-1.285.799-5.909.059-5.909-.104 0-.133-.09-.065-.2s.028-.2-.088-.2c-.117 0-.212-.116-.212-.258 0-.755-2.405-2.483-3.982-2.86-1.089-.261-321.786-.447-322.046-.187" fill="#e4e4ec"/><path d="m57.998 53.95-4.498 4.55 4.55-4.498c2.503-2.474 4.55-4.522 4.55-4.55 0-.142-.422.27-4.602 4.498m325.53 14.873c-5.924 5.941-12.353 12.439-14.287 14.44-1.933 2 .692-.548 5.835-5.663 8.368-8.323 19.492-19.616 19.298-19.59-.041.005-4.921 4.871-10.846 10.813m-361.429 21.027-11.399 11.45 11.45-11.399c6.298-6.27 11.45-11.422 11.45-11.45 0-.141-.904.756-11.501 11.399m329.201 90.55c4.179 4.18 7.643 7.6 7.698 7.6s-3.319-3.42-7.498-7.6-7.643-7.6-7.698-7.6 3.319 3.42 7.498 7.6m-327.7 12.9c9.515 9.515 17.344 17.3 17.399 17.3s-7.684-7.785-17.199-17.3-17.344-17.3-17.399-17.3 7.684 7.785 17.199 17.3m367.5 26.9c3.849 3.85 7.043 7 7.098 7s-3.049-3.15-6.898-7-7.043-7-7.098-7 3.049 3.15 6.898 7m-334.001 6.567c4.29 4.308 7.853 7.833 7.92 7.833.21 0-12.611-12.945-14.199-14.335-.836-.733 1.99 2.193 6.279 6.502m341.301.809c0 .123.083.224.185.224s.227.157.277.35c.077.295.095.299.115.024.013-.179-.112-.437-.277-.574-.207-.172-.3-.18-.3-.024m-328.112 10.113c.214.171.529.304.7.295.27-.013.271-.031.012-.127-.165-.061-.48-.194-.7-.295-.394-.181-.394-.179-.012.127m-25.889 65.261-12.899 12.95 12.95-12.899c12.038-11.991 13.04-13.001 12.899-13.001-.027 0-5.855 5.828-12.95 12.95m332.1 8.5-7.599 7.65 7.65-7.599c7.11-7.063 7.74-7.701 7.599-7.701-.028 0-3.471 3.443-7.65 7.65" fill="#dce4ec"/><g fill="#e8e4ec"><path d="m393.698 58.85-4.398 4.45 4.45-4.398c4.135-4.087 4.54-4.502 4.398-4.502-.028 0-2.031 2.003-4.45 4.45m-389.698 114.85c1.261 1.265 2.338 2.3 2.393 2.3s-.932-1.035-2.193-2.3-2.338-2.3-2.393-2.3.932 1.035 2.193 2.3m19.599 150.05-7.899 7.95 7.95-7.899c7.389-7.342 8.04-8.001 7.899-8.001-.028 0-3.605 3.578-7.95 7.95"/><path d="m393.698 58.85-4.398 4.45 4.45-4.398c4.135-4.087 4.54-4.502 4.398-4.502-.028 0-2.031 2.003-4.45 4.45m-389.698 114.85c1.261 1.265 2.338 2.3 2.393 2.3s-.932-1.035-2.193-2.3-2.338-2.3-2.393-2.3.932 1.035 2.193 2.3m19.599 150.05-7.899 7.95 7.95-7.899c7.389-7.342 8.04-8.001 7.899-8.001-.028 0-3.605 3.578-7.95 7.95"/><path d="m393.698 58.85-4.398 4.45 4.45-4.398c4.135-4.087 4.54-4.502 4.398-4.502-.028 0-2.031 2.003-4.45 4.45m-389.698 114.85c1.261 1.265 2.338 2.3 2.393 2.3s-.932-1.035-2.193-2.3-2.338-2.3-2.393-2.3.932 1.035 2.193 2.3m19.599 150.05-7.899 7.95 7.95-7.899c7.389-7.342 8.04-8.001 7.899-8.001-.028 0-3.605 3.578-7.95 7.95"/></g></g></svg>