<svg width="16" height="16" viewBox="0 0 16 16" fill="none" xmlns="http://www.w3.org/2000/svg">
<path d="M14.1667 12.3133L13.0667 12.5733C12.82 12.6333 12.6267 12.82 12.5733 13.0666L12.34 14.0466C12.2133 14.58 11.5333 14.7466 11.18 14.3266L9.18666 12.0333C9.02666 11.8466 9.11332 11.5533 9.35332 11.4933C10.5333 11.2066 11.5933 10.5466 12.3733 9.60664C12.5 9.4533 12.7267 9.4333 12.8667 9.5733L14.3467 11.0533C14.8533 11.56 14.6733 12.1933 14.1667 12.3133Z" fill="white" fill-opacity="0.25"/>
<path d="M1.8 12.3133L2.9 12.5733C3.14667 12.6333 3.34 12.82 3.39334 13.0666L3.62667 14.0466C3.75334 14.58 4.43333 14.7466 4.78667 14.3266L6.78 12.0333C6.94 11.8466 6.85334 11.5533 6.61334 11.4933C5.43334 11.2066 4.37334 10.5466 3.59334 9.60664C3.46667 9.4533 3.24 9.4333 3.1 9.5733L1.62 11.0533C1.11334 11.56 1.29334 12.1933 1.8 12.3133Z" fill="white" fill-opacity="0.25"/>
<path d="M8 1.33331C5.42 1.33331 3.33334 3.41998 3.33334 5.99998C3.33334 6.96665 3.62 7.85331 4.11334 8.59331C4.83334 9.65998 5.97334 10.4133 7.3 10.6066C7.52667 10.6466 7.76 10.6666 8 10.6666C8.24 10.6666 8.47334 10.6466 8.7 10.6066C10.0267 10.4133 11.1667 9.65998 11.8867 8.59331C12.38 7.85331 12.6667 6.96665 12.6667 5.99998C12.6667 3.41998 10.58 1.33331 8 1.33331ZM10.04 5.85331L9.48667 6.40665C9.39334 6.49998 9.34 6.67998 9.37334 6.81331L9.53334 7.49998C9.66 8.03998 9.37334 8.25331 8.89334 7.96665L8.22667 7.57331C8.10667 7.49998 7.90667 7.49998 7.78667 7.57331L7.12 7.96665C6.64 8.24665 6.35334 8.03998 6.48 7.49998L6.64 6.81331C6.66667 6.68665 6.62 6.49998 6.52667 6.40665L5.96 5.85331C5.63334 5.52665 5.74 5.19998 6.19334 5.12665L6.90667 5.00665C7.02667 4.98665 7.16667 4.87998 7.22 4.77331L7.61334 3.98665C7.82667 3.55998 8.17334 3.55998 8.38667 3.98665L8.78 4.77331C8.83334 4.87998 8.97334 4.98665 9.1 5.00665L9.81334 5.12665C10.26 5.19998 10.3667 5.52665 10.04 5.85331Z" fill="white" fill-opacity="0.25"/>
</svg>
