<svg width="64" height="64" viewBox="0 0 64 64" fill="none" xmlns="http://www.w3.org/2000/svg">
<path opacity="0.4" d="M28.6662 6.53449C30.5062 4.96116 33.5195 4.96116 35.3862 6.53449L39.5995 10.1611C40.3995 10.8545 41.8928 11.4145 42.9595 11.4145H47.4928C50.3195 11.4145 52.6395 13.7345 52.6395 16.5612V21.0944C52.6395 22.1344 53.1995 23.6544 53.8928 24.4544L57.5195 28.6678C59.0929 30.5078 59.0929 33.5212 57.5195 35.3878L53.8928 39.6011C53.1995 40.4011 52.6395 41.8944 52.6395 42.9611V47.4944C52.6395 50.3211 50.3195 52.6411 47.4928 52.6411H42.9595C41.9195 52.6411 40.3995 53.2012 39.5995 53.8945L35.3862 57.5211C33.5462 59.0945 30.5329 59.0945 28.6662 57.5211L24.4529 53.8945C23.6529 53.2012 22.1595 52.6411 21.0929 52.6411H16.4795C13.6528 52.6411 11.3329 50.3211 11.3329 47.4944V42.9344C11.3329 41.8944 10.7729 40.4011 10.1062 39.6011L6.50619 35.3612C4.95952 33.5212 4.95952 30.5345 6.50619 28.6945L10.1062 24.4544C10.7729 23.6544 11.3329 22.1611 11.3329 21.1211V16.5612C11.3329 13.7345 13.6528 11.4145 16.4795 11.4145H21.0929C22.1329 11.4145 23.6529 10.8545 24.4529 10.1611L28.6662 6.53449Z" fill="#6FFF90"/>
<path d="M38.0271 32L34.0004 30.5867V21.5467H34.9604C37.1204 21.5467 38.8804 23.44 38.8804 25.76C38.8804 26.8533 39.7871 27.76 40.8804 27.76C41.9737 27.76 42.8804 26.8533 42.8804 25.76C42.8804 21.2267 39.3337 17.5467 34.9604 17.5467H34.0004V16C34.0004 14.9067 33.0938 14 32.0004 14C30.9071 14 30.0004 14.9067 30.0004 16V17.5467H28.2671C24.3204 17.5467 21.0938 20.88 21.0938 24.96C21.0938 29.7333 23.8671 31.2533 25.9737 32L30.0004 33.4133V42.4267H29.0404C26.8804 42.4267 25.1204 40.5333 25.1204 38.2133C25.1204 37.12 24.2138 36.2133 23.1204 36.2133C22.0271 36.2133 21.1204 37.12 21.1204 38.2133C21.1204 42.7467 24.6671 46.4267 29.0404 46.4267H30.0004V48C30.0004 49.0933 30.9071 50 32.0004 50C33.0938 50 34.0004 49.0933 34.0004 48V46.4533H35.7337C39.6804 46.4533 42.9071 43.12 42.9071 39.04C42.8804 34.24 40.1071 32.72 38.0271 32ZM27.3071 28.24C25.9471 27.76 25.1204 27.3067 25.1204 24.9867C25.1204 23.0933 26.5337 21.5733 28.2937 21.5733H30.0271V29.2L27.3071 28.24ZM35.7337 42.4533H34.0004V34.8267L36.6938 35.76C38.0537 36.24 38.8804 36.6933 38.8804 39.0133C38.8804 40.9067 37.4671 42.4533 35.7337 42.4533Z" fill="#6FFF90"/>
</svg>
