<svg width="16" height="16" viewBox="0 0 16 16" fill="none" xmlns="http://www.w3.org/2000/svg">
<path d="M14.6672 7.31123V8.68456C14.6672 9.05123 14.3739 9.35123 14.0006 9.36456H12.6939C11.9739 9.36456 11.3139 8.83789 11.2539 8.11789C11.2139 7.69789 11.3739 7.30456 11.6539 7.03123C11.9006 6.77789 12.2406 6.63123 12.6139 6.63123H14.0006C14.3739 6.64456 14.6672 6.94456 14.6672 7.31123Z" fill="white" fill-opacity="0.25"/>
<path d="M13.647 10.3646H12.6936C11.427 10.3646 10.3603 9.41124 10.2536 8.1979C10.1936 7.50457 10.447 6.81124 10.9536 6.3179C11.3803 5.8779 11.9736 5.63124 12.6136 5.63124H13.647C13.8403 5.63124 14.0003 5.47124 13.9803 5.2779C13.8336 3.6579 12.7603 2.55124 11.167 2.36457C11.007 2.3379 10.8403 2.33124 10.667 2.33124H4.66695C4.48028 2.33124 4.30028 2.34457 4.12695 2.37124C2.42695 2.58457 1.33362 3.85124 1.33362 5.66457V10.3312C1.33362 12.1712 2.82695 13.6646 4.66695 13.6646H10.667C12.5336 13.6646 13.8203 12.4979 13.9803 10.7179C14.0003 10.5246 13.8403 10.3646 13.647 10.3646ZM8.66695 6.4979H4.66695C4.39362 6.4979 4.16695 6.27124 4.16695 5.9979C4.16695 5.72457 4.39362 5.4979 4.66695 5.4979H8.66695C8.94029 5.4979 9.16695 5.72457 9.16695 5.9979C9.16695 6.27124 8.94029 6.4979 8.66695 6.4979Z" fill="white" fill-opacity="0.25"/>
</svg>
