<svg width="64" height="64" viewBox="0 0 64 64" fill="none" xmlns="http://www.w3.org/2000/svg">
<path opacity="0.4" d="M58.6663 28.6947C58.6663 27.4414 57.653 26.4014 56.373 26.4014H7.62634C6.34634 26.4014 5.33301 27.4147 5.33301 28.6947C5.33301 44.4014 16.293 55.3614 31.9997 55.3614C47.7063 55.3614 58.6663 44.3747 58.6663 28.6947Z" fill="#6FFF90"/>
<path d="M33.4147 9.22808L41.0147 16.8014C41.788 17.5747 41.788 18.8547 41.0147 19.6281C40.2414 20.4014 38.9614 20.4014 38.188 19.6281L34.0014 15.4681V40.9881C34.0014 42.0814 33.0947 42.9881 32.0014 42.9881C30.908 42.9881 30.0014 42.0814 30.0014 40.9881V15.4681L25.8414 19.6547C25.068 20.4281 23.788 20.4281 23.0147 19.6547C22.6147 19.2547 22.4014 18.7481 22.4014 18.2414C22.4014 17.7347 22.588 17.2281 22.988 16.8281L30.588 9.25474C31.3614 8.45474 32.6414 8.45474 33.4147 9.22808Z" fill="#6FFF90"/>
</svg>
