<svg width="22" height="17" viewBox="0 0 22 17" fill="none" xmlns="http://www.w3.org/2000/svg">
<path d="M7.02539 13.3891V5.7793" stroke="#0A58EB" stroke-width="1.17074" stroke-linecap="round" stroke-linejoin="round"/>
<path d="M8.7798 10.4606C8.27333 10.3126 7.82848 10.0044 7.51189 9.58227C7.19529 9.16015 7.024 8.6468 7.02369 8.11914C7.02337 8.6468 6.85208 9.16015 6.53549 9.58227C6.21889 10.0044 5.77404 10.3126 5.26758 10.4606" stroke="#0A58EB" stroke-width="1.17074" stroke-linecap="round" stroke-linejoin="round"/>
<path d="M10.3008 6.65768C10.4355 6.4244 10.5148 6.16327 10.5324 5.89447C10.55 5.62568 10.5056 5.35643 10.4025 5.10756C10.2994 4.85869 10.1405 4.63686 9.93795 4.45925C9.73543 4.28164 9.49476 4.153 9.23457 4.08328C8.97437 4.01356 8.70163 4.00463 8.43743 4.05718C8.17324 4.10974 7.92467 4.22237 7.71097 4.38635C7.49726 4.55034 7.32415 4.76129 7.20502 5.00289C7.08588 5.24449 7.02393 5.51025 7.02394 5.77962C7.02395 5.51025 6.96199 5.24449 6.84286 5.00289C6.72373 4.76129 6.55061 4.55034 6.33691 4.38635C6.1232 4.22237 5.87464 4.10974 5.61044 4.05718C5.34625 4.00463 5.0735 4.01356 4.81331 4.08328C4.55311 4.153 4.31245 4.28164 4.10992 4.45925C3.9074 4.63686 3.74845 4.85869 3.64538 5.10756C3.5423 5.35643 3.49786 5.62568 3.51548 5.89447C3.53311 6.16327 3.61234 6.4244 3.74704 6.65768" stroke="#0A58EB" stroke-width="1.17074" stroke-linecap="round" stroke-linejoin="round"/>
<path d="M10.5352 5.85156C10.8792 5.94003 11.1987 6.10564 11.4693 6.33585C11.7399 6.56605 11.9545 6.85481 12.097 7.18026C12.2395 7.50571 12.306 7.85932 12.2916 8.2143C12.2772 8.56928 12.1822 8.91632 12.0138 9.22915" stroke="#0A58EB" stroke-width="1.17074" stroke-linecap="round" stroke-linejoin="round"/>
<path d="M10.5371 13.3868C11.0525 13.3868 11.5535 13.2167 11.9624 12.9029C12.3714 12.5891 12.6653 12.1492 12.7987 11.6513C12.9321 11.1535 12.8975 10.6255 12.7003 10.1493C12.503 9.67312 12.1542 9.27531 11.7078 9.01758" stroke="#0A58EB" stroke-width="1.17074" stroke-linecap="round" stroke-linejoin="round"/>
<path d="M11.6884 13.0859C11.7294 13.4033 11.7049 13.7258 11.6165 14.0334C11.528 14.3409 11.3774 14.6271 11.174 14.8742C10.9706 15.1213 10.7187 15.3241 10.4338 15.47C10.149 15.6159 9.83723 15.7019 9.51786 15.7226C9.19848 15.7434 8.87824 15.6984 8.57693 15.5905C8.27561 15.4826 7.99961 15.3141 7.76597 15.0954C7.53233 14.8766 7.34602 14.6123 7.21853 14.3188C7.09105 14.0252 7.0251 13.7086 7.02475 13.3886C7.02441 13.7086 6.95846 14.0252 6.83098 14.3188C6.70349 14.6123 6.51717 14.8766 6.28354 15.0954C6.0499 15.3141 5.7739 15.4826 5.47258 15.5905C5.17126 15.6984 4.85103 15.7434 4.53165 15.7226C4.21227 15.7019 3.90053 15.6159 3.61569 15.47C3.33084 15.3241 3.07894 15.1213 2.87553 14.8742C2.67212 14.6271 2.52152 14.3409 2.43305 14.0334C2.34457 13.7258 2.32009 13.4033 2.36111 13.0859" stroke="#0A58EB" stroke-width="1.17074" stroke-linecap="round" stroke-linejoin="round"/>
<path d="M3.51325 13.3868C2.99783 13.3868 2.49682 13.2167 2.08791 12.9029C1.67901 12.5891 1.38506 12.1492 1.25166 11.6513C1.11826 11.1535 1.15286 10.6255 1.35009 10.1493C1.54732 9.67312 1.89616 9.27531 2.34251 9.01758" stroke="#0A58EB" stroke-width="1.17074" stroke-linecap="round" stroke-linejoin="round"/>
<path d="M3.51426 5.85156C3.17018 5.94003 2.85074 6.10564 2.58014 6.33585C2.30954 6.56605 2.09487 6.85481 1.9524 7.18026C1.80992 7.50571 1.74337 7.85932 1.75779 8.2143C1.77221 8.56928 1.86721 8.91632 2.03561 9.22915" stroke="#0A58EB" stroke-width="1.17074" stroke-linecap="round" stroke-linejoin="round"/>
<rect width="8" height="8" transform="translate(9.74219)" fill="white"/>
<path d="M15.1934 6.10168V1.79297H16.0633V6.10168H15.1934Z" fill="#0A58EB"/>
<path d="M14.755 6.10168H13.8087L13.4325 5.12296H11.7101L11.3545 6.10168H10.4316L12.1099 1.79297H13.0298L14.755 6.10168ZM13.1532 4.39701L12.5595 2.79814L11.9776 4.39701H13.1532Z" fill="#0A58EB"/>
</svg>
