<svg width="512" height="370" viewBox="0 0 512 370" fill="none" xmlns="http://www.w3.org/2000/svg">
<g filter="url(#filter0_d_18_337)">
<mask id="path-1-inside-1_18_337" fill="white">
<path d="M8.61719 17.2328C8.61719 10.8878 13.7608 5.74414 20.1058 5.74414H358.302C364.647 5.74414 369.791 10.8878 369.791 17.2328V93.3449C369.791 99.6899 364.647 104.834 358.302 104.834H20.1058C13.7608 104.834 8.61719 99.6899 8.61719 93.3449V17.2328Z"/>
</mask>
<path d="M8.61719 17.2328C8.61719 10.8878 13.7608 5.74414 20.1058 5.74414H358.302C364.647 5.74414 369.791 10.8878 369.791 17.2328V93.3449C369.791 99.6899 364.647 104.834 358.302 104.834H20.1058C13.7608 104.834 8.61719 99.6899 8.61719 93.3449V17.2328Z" fill="white" shape-rendering="crispEdges"/>
<path d="M20.1058 5.74414V6.46218H358.302V5.74414V5.0261H20.1058V5.74414ZM369.791 17.2328H369.073V93.3449H369.791H370.509V17.2328H369.791ZM358.302 104.834V104.115H20.1058V104.834V105.552H358.302V104.834ZM8.61719 93.3449H9.33523V17.2328H8.61719H7.89915V93.3449H8.61719ZM20.1058 104.834V104.115C14.1574 104.115 9.33523 99.2933 9.33523 93.3449H8.61719H7.89915C7.89915 100.086 13.3642 105.552 20.1058 105.552V104.834ZM369.791 93.3449H369.073C369.073 99.2933 364.251 104.115 358.302 104.115V104.834V105.552C365.044 105.552 370.509 100.086 370.509 93.3449H369.791ZM358.302 5.74414V6.46218C364.251 6.46218 369.073 11.2843 369.073 17.2328H369.791H370.509C370.509 10.4912 365.044 5.0261 358.302 5.0261V5.74414ZM20.1058 5.74414V5.0261C13.3643 5.0261 7.89915 10.4912 7.89915 17.2328H8.61719H9.33523C9.33523 11.2843 14.1574 6.46218 20.1058 6.46218V5.74414Z" fill="#E2E8F0" mask="url(#path-1-inside-1_18_337)"/>
<path d="M26.5684 40.9282C26.5684 31.4108 34.2838 23.6953 43.8013 23.6953C53.3188 23.6953 61.0342 31.4108 61.0342 40.9282C61.0342 50.4457 53.3188 58.1612 43.8013 58.1612C34.2838 58.1612 26.5684 50.4457 26.5684 40.9282Z" fill="url(#paint0_linear_18_337)"/>
<path d="M72.5234 33.7472C72.5234 32.1609 73.8093 30.875 75.3956 30.875H161.56C163.147 30.875 164.432 32.1609 164.432 33.7472V36.6193C164.432 38.2056 163.147 39.4915 161.56 39.4915H75.3956C73.8093 39.4915 72.5234 38.2056 72.5234 36.6193V33.7472Z" fill="#E2E8F0"/>
<path d="M72.5234 48.1085C72.5234 46.5222 73.8093 45.2363 75.3956 45.2363H138.583C140.169 45.2363 141.455 46.5222 141.455 48.1085C141.455 49.6947 140.169 50.9806 138.583 50.9806H75.3956C73.8093 50.9806 72.5234 49.6947 72.5234 48.1085Z" fill="#F1F5F9"/>
<path d="M26.5684 72.5225C26.5684 70.9363 27.8543 69.6504 29.4405 69.6504H348.968C350.554 69.6504 351.84 70.9363 351.84 72.5225C351.84 74.1088 350.554 75.3947 348.968 75.3947H29.4405C27.8543 75.3947 26.5684 74.1088 26.5684 72.5225Z" fill="#F1F5F9"/>
<path d="M26.5684 84.0108C26.5684 82.4246 27.8543 81.1387 29.4405 81.1387H267.65C269.236 81.1387 270.522 82.4246 270.522 84.0108C270.522 85.5971 269.236 86.883 267.65 86.883H29.4405C27.8543 86.883 26.5684 85.5971 26.5684 84.0108Z" fill="#F1F5F9"/>
</g>
<g filter="url(#filter1_d_18_337)">
<mask id="path-8-inside-2_18_337" fill="white">
<path d="M141.455 151.233C141.455 144.888 146.599 139.744 152.944 139.744H491.14C497.485 139.744 502.629 144.888 502.629 151.233V227.345C502.629 233.69 497.485 238.834 491.14 238.834H152.944C146.599 238.834 141.455 233.69 141.455 227.345V151.233Z"/>
</mask>
<path d="M141.455 151.233C141.455 144.888 146.599 139.744 152.944 139.744H491.14C497.485 139.744 502.629 144.888 502.629 151.233V227.345C502.629 233.69 497.485 238.834 491.14 238.834H152.944C146.599 238.834 141.455 233.69 141.455 227.345V151.233Z" fill="white" shape-rendering="crispEdges"/>
<path d="M152.944 139.744V140.462H491.14V139.744V139.026H152.944V139.744ZM502.629 151.233H501.911V227.345H502.629H503.347V151.233H502.629ZM491.14 238.834V238.115H152.944V238.834V239.552H491.14V238.834ZM141.455 227.345H142.173V151.233H141.455H140.737V227.345H141.455ZM152.944 238.834V238.115C146.995 238.115 142.173 233.293 142.173 227.345H141.455H140.737C140.737 234.086 146.202 239.552 152.944 239.552V238.834ZM502.629 227.345H501.911C501.911 233.293 497.088 238.115 491.14 238.115V238.834V239.552C497.882 239.552 503.347 234.086 503.347 227.345H502.629ZM491.14 139.744V140.462C497.089 140.462 501.911 145.284 501.911 151.233H502.629H503.347C503.347 144.491 497.882 139.026 491.14 139.026V139.744ZM152.944 139.744V139.026C146.202 139.026 140.737 144.491 140.737 151.233H141.455H142.173C142.173 145.284 146.995 140.462 152.944 140.462V139.744Z" fill="#E2E8F0" mask="url(#path-8-inside-2_18_337)"/>
<path d="M159.406 174.928C159.406 165.411 167.122 157.695 176.639 157.695C186.157 157.695 193.872 165.411 193.872 174.928C193.872 184.446 186.157 192.161 176.639 192.161C167.122 192.161 159.406 184.446 159.406 174.928Z" fill="url(#paint1_linear_18_337)"/>
<path d="M205.361 167.747C205.361 166.161 206.647 164.875 208.233 164.875H294.398C295.984 164.875 297.27 166.161 297.27 167.747V170.619C297.27 172.206 295.984 173.491 294.398 173.491H208.233C206.647 173.491 205.361 172.206 205.361 170.619V167.747Z" fill="#E2E8F0"/>
<path d="M205.361 182.108C205.361 180.522 206.647 179.236 208.233 179.236H271.421C273.007 179.236 274.293 180.522 274.293 182.108C274.293 183.695 273.007 184.981 271.421 184.981H208.233C206.647 184.981 205.361 183.695 205.361 182.108Z" fill="#F1F5F9"/>
<path d="M159.406 206.523C159.406 204.936 160.692 203.65 162.278 203.65H481.806C483.392 203.65 484.678 204.936 484.678 206.523C484.678 208.109 483.392 209.395 481.806 209.395H162.278C160.692 209.395 159.406 208.109 159.406 206.523Z" fill="#F1F5F9"/>
<path d="M159.406 218.011C159.406 216.425 160.692 215.139 162.278 215.139H400.488C402.074 215.139 403.36 216.425 403.36 218.011C403.36 219.597 402.074 220.883 400.488 220.883H162.278C160.692 220.883 159.406 219.597 159.406 218.011Z" fill="#F1F5F9"/>
</g>
<g filter="url(#filter2_d_18_337)">
<mask id="path-15-inside-3_18_337" fill="white">
<path d="M70.7285 270.727C70.7285 264.382 75.8721 259.238 82.2171 259.238H420.413C426.758 259.238 431.902 264.382 431.902 270.727V346.839C431.902 353.184 426.758 358.328 420.413 358.328H82.2171C75.8721 358.328 70.7285 353.184 70.7285 346.839V270.727Z"/>
</mask>
<path d="M70.7285 270.727C70.7285 264.382 75.8721 259.238 82.2171 259.238H420.413C426.758 259.238 431.902 264.382 431.902 270.727V346.839C431.902 353.184 426.758 358.328 420.413 358.328H82.2171C75.8721 358.328 70.7285 353.184 70.7285 346.839V270.727Z" fill="white" shape-rendering="crispEdges"/>
<path d="M82.2171 259.238V259.956H420.413V259.238V258.52H82.2171V259.238ZM431.902 270.727H431.184V346.839H431.902H432.62V270.727H431.902ZM420.413 358.328V357.61H82.2171V358.328V359.046H420.413V358.328ZM70.7285 346.839H71.4466V270.727H70.7285H70.0105V346.839H70.7285ZM82.2171 358.328V357.61C76.2687 357.61 71.4466 352.787 71.4466 346.839H70.7285H70.0105C70.0105 353.581 75.4756 359.046 82.2171 359.046V358.328ZM431.902 346.839H431.184C431.184 352.787 426.362 357.61 420.413 357.61V358.328V359.046C427.155 359.046 432.62 353.581 432.62 346.839H431.902ZM420.413 259.238V259.956C426.362 259.956 431.184 264.778 431.184 270.727H431.902H432.62C432.62 263.985 427.155 258.52 420.413 258.52V259.238ZM82.2171 259.238V258.52C75.4756 258.52 70.0105 263.985 70.0105 270.727H70.7285H71.4466C71.4466 264.778 76.2687 259.956 82.2171 259.956V259.238Z" fill="#E2E8F0" mask="url(#path-15-inside-3_18_337)"/>
<path d="M88.6797 294.422C88.6797 284.905 96.3951 277.189 105.913 277.189C115.43 277.189 123.146 284.905 123.146 294.422C123.146 303.94 115.43 311.655 105.913 311.655C96.3951 311.655 88.6797 303.94 88.6797 294.422Z" fill="url(#paint2_linear_18_337)"/>
<path d="M134.635 287.241C134.635 285.655 135.921 284.369 137.507 284.369H223.672C225.258 284.369 226.544 285.655 226.544 287.241V290.113C226.544 291.7 225.258 292.986 223.672 292.986H137.507C135.921 292.986 134.635 291.7 134.635 290.113V287.241Z" fill="#E2E8F0"/>
<path d="M134.635 301.603C134.635 300.016 135.921 298.73 137.507 298.73H200.694C202.281 298.73 203.567 300.016 203.567 301.603C203.567 303.189 202.281 304.475 200.694 304.475H137.507C135.921 304.475 134.635 303.189 134.635 301.603Z" fill="#F1F5F9"/>
<path d="M88.6797 326.017C88.6797 324.43 89.9656 323.145 91.5518 323.145H411.079C412.665 323.145 413.951 324.43 413.951 326.017C413.951 327.603 412.665 328.889 411.079 328.889H91.5519C89.9656 328.889 88.6797 327.603 88.6797 326.017Z" fill="#F1F5F9"/>
<path d="M88.6797 337.505C88.6797 335.919 89.9656 334.633 91.5518 334.633H329.761C331.348 334.633 332.633 335.919 332.633 337.505C332.633 339.091 331.348 340.377 329.761 340.377H91.5519C89.9656 340.377 88.6797 339.091 88.6797 337.505Z" fill="#F1F5F9"/>
</g>
<defs>
<filter id="filter0_d_18_337" x="0.000720024" y="-0.000170946" width="378.407" height="116.323" filterUnits="userSpaceOnUse" color-interpolation-filters="sRGB">
<feFlood flood-opacity="0" result="BackgroundImageFix"/>
<feColorMatrix in="SourceAlpha" type="matrix" values="0 0 0 0 0 0 0 0 0 0 0 0 0 0 0 0 0 0 127 0" result="hardAlpha"/>
<feOffset dy="2.87216"/>
<feGaussianBlur stdDeviation="4.30823"/>
<feComposite in2="hardAlpha" operator="out"/>
<feColorMatrix type="matrix" values="0 0 0 0 0.0705882 0 0 0 0 0.129412 0 0 0 0 0.239216 0 0 0 0.06 0"/>
<feBlend mode="normal" in2="BackgroundImageFix" result="effect1_dropShadow_18_337"/>
<feBlend mode="normal" in="SourceGraphic" in2="effect1_dropShadow_18_337" result="shape"/>
</filter>
<filter id="filter1_d_18_337" x="132.839" y="134" width="378.407" height="116.323" filterUnits="userSpaceOnUse" color-interpolation-filters="sRGB">
<feFlood flood-opacity="0" result="BackgroundImageFix"/>
<feColorMatrix in="SourceAlpha" type="matrix" values="0 0 0 0 0 0 0 0 0 0 0 0 0 0 0 0 0 0 127 0" result="hardAlpha"/>
<feOffset dy="2.87216"/>
<feGaussianBlur stdDeviation="4.30823"/>
<feComposite in2="hardAlpha" operator="out"/>
<feColorMatrix type="matrix" values="0 0 0 0 0.0705882 0 0 0 0 0.129412 0 0 0 0 0.239216 0 0 0 0.06 0"/>
<feBlend mode="normal" in2="BackgroundImageFix" result="effect1_dropShadow_18_337"/>
<feBlend mode="normal" in="SourceGraphic" in2="effect1_dropShadow_18_337" result="shape"/>
</filter>
<filter id="filter2_d_18_337" x="62.112" y="253.494" width="378.407" height="116.323" filterUnits="userSpaceOnUse" color-interpolation-filters="sRGB">
<feFlood flood-opacity="0" result="BackgroundImageFix"/>
<feColorMatrix in="SourceAlpha" type="matrix" values="0 0 0 0 0 0 0 0 0 0 0 0 0 0 0 0 0 0 127 0" result="hardAlpha"/>
<feOffset dy="2.87216"/>
<feGaussianBlur stdDeviation="4.30823"/>
<feComposite in2="hardAlpha" operator="out"/>
<feColorMatrix type="matrix" values="0 0 0 0 0.0705882 0 0 0 0 0.129412 0 0 0 0 0.239216 0 0 0 0.06 0"/>
<feBlend mode="normal" in2="BackgroundImageFix" result="effect1_dropShadow_18_337"/>
<feBlend mode="normal" in="SourceGraphic" in2="effect1_dropShadow_18_337" result="shape"/>
</filter>
<linearGradient id="paint0_linear_18_337" x1="43.8013" y1="23.6953" x2="43.8013" y2="58.1612" gradientUnits="userSpaceOnUse">
<stop stop-color="#2563EB"/>
<stop offset="1" stop-color="#7C3AED"/>
</linearGradient>
<linearGradient id="paint1_linear_18_337" x1="176.639" y1="157.695" x2="176.639" y2="192.161" gradientUnits="userSpaceOnUse">
<stop stop-color="#2563EB"/>
<stop offset="1" stop-color="#7C3AED"/>
</linearGradient>
<linearGradient id="paint2_linear_18_337" x1="105.913" y1="277.189" x2="105.913" y2="311.655" gradientUnits="userSpaceOnUse">
<stop stop-color="#2563EB"/>
<stop offset="1" stop-color="#7C3AED"/>
</linearGradient>
</defs>
</svg>
