<svg width="1196" height="247" viewBox="0 0 1196 247" fill="none" xmlns="http://www.w3.org/2000/svg">
<g clip-path="url(#clip0_91_607)">
<path d="M406.945 179.584C406.945 190.422 403.915 198.812 397.855 204.756C391.795 210.699 383.055 213.729 371.751 213.729C360.447 213.729 351.707 210.349 345.531 203.707C339.354 197.064 336.208 187.625 336.208 175.505V69.8066H302.062V175.505C302.062 197.997 307.307 215.36 317.678 227.713C328.167 240.066 342.967 246.243 362.195 246.243C374.781 246.243 385.036 243.213 392.844 236.92C399.254 231.909 403.682 226.082 406.945 219.905V243.679H440.974V69.8066H406.945V179.584Z" fill="white"/>
<path d="M510.078 212.101C506.699 212.101 504.135 210.935 502.27 208.605C500.406 206.274 499.473 203.011 499.473 198.932V0.121094H465.328V198.466C465.328 213.149 468.941 224.453 476.049 232.494C483.158 240.535 493.18 244.498 505.999 244.498H526.044V211.984H509.962L510.078 212.101Z" fill="white"/>
<g opacity="0.36">
<path d="M523.602 244.253L524.184 70.3809H559.844L552.036 194.492L634.078 70.3809H657.851L662.513 194.492L731.968 70.3809H767.629L659.832 244.253H634.078L629.183 124.104L549.356 244.253H523.602Z" fill="white"/>
<path d="M777.766 246.7C756.44 246.7 741.873 242.271 733.949 233.415C726.024 224.558 724.859 211.04 730.569 192.86C735.93 175.612 744.903 162.677 757.256 154.053C769.725 145.546 785.691 141.234 805.269 141.234H854.68L848.504 168.737H796.878C788.021 168.737 780.796 170.718 775.086 174.68C769.376 178.642 765.297 184.702 762.733 192.86C759.936 201.717 760.869 208.243 765.53 212.438C770.075 216.633 778.349 218.847 790.236 218.847C803.171 218.847 813.31 217.449 820.652 214.652C827.993 211.855 832.655 207.543 834.403 201.6L830.324 226.073C825.896 230.734 820.885 234.58 815.524 237.61C810.163 240.64 804.337 242.854 798.044 244.369C791.751 245.884 785.108 246.583 777.766 246.583V246.7ZM821.118 244.252L855.496 134.009C858.992 122.588 858.759 113.732 854.68 107.439C850.601 101.146 842.91 97.9993 831.723 97.9993C824.964 97.9993 817.855 99.0481 810.63 101.146C803.288 103.243 796.412 106.157 790.003 110.119L770.425 92.9882C779.514 85.0638 790.119 78.8874 802.239 74.459C814.359 70.0306 827.061 67.8164 840.23 67.8164C862.022 67.8164 877.172 73.4101 885.562 84.7142C893.953 96.0182 895.002 111.867 888.592 132.494L853.748 244.252H821.234H821.118Z" fill="white"/>
<path d="M878.107 244.252L932.297 70.3802H966.442L912.253 244.252H878.107ZM1015.15 111.634C1013.29 107.905 1010.38 105.108 1006.41 103.243C1002.45 101.379 997.441 100.447 991.381 100.447C980.543 100.447 971.22 103.477 963.412 109.42C955.604 115.363 950.01 123.637 946.747 134.242L953.623 100.68C962.13 90.4244 971.453 82.3834 981.825 76.5566C992.196 70.7298 1002.45 67.8164 1012.71 67.8164C1020.63 67.8164 1027.51 68.9818 1033.1 71.196C1038.81 73.5267 1043.36 76.9062 1046.74 81.3346L1015.04 111.518L1015.15 111.634Z" fill="white"/>
<path d="M997.09 244.256L1072.96 0.695312H1107.1L1031.23 244.256H997.09ZM1017.6 218.735L1032.4 178.18L1155.46 70.2675H1195.67L1017.6 218.735ZM1112.81 244.256L1083.44 143.918L1112.46 121.077L1149.99 244.256H1112.81Z" fill="white"/>
</g>
<path d="M130.988 1.04883C132.62 19.6946 136.116 34.6113 141.127 45.2161C143.807 50.3437 146.371 53.8398 149.284 55.8209C150.916 57.1028 150.916 57.2193 150.45 61.7642C149.401 82.8573 147.42 103.368 144.74 122.596C141.243 148.584 136.349 172.707 130.522 194.499C126.676 208.367 122.365 221.069 118.053 232.373C124.113 220.953 129.706 208.25 134.95 194.033C142.642 172.59 149.051 148.351 153.946 122.363C157.442 103.135 160.006 82.6242 161.637 61.5312C161.793 58.9674 161.404 57.4135 160.472 56.8697C156.393 54.7721 152.781 51.1594 149.284 45.7988C142.176 34.9609 137.514 20.0442 135.184 1.16536C135.184 0.699218 135.184 0.349609 135.067 0H130.755C130.755 0 130.872 0.582681 130.872 0.93229L130.988 1.04883Z" fill="white"/>
<path d="M155.46 122.829C150.566 148.817 144.273 172.94 136.465 194.499C132.036 206.968 127.142 218.273 121.781 228.528C128.54 218.039 134.833 206.386 140.544 193.916C150.333 172.474 158.257 148.234 164.2 122.48C168.629 103.251 171.892 82.7408 173.756 61.6477C173.99 59.1616 173.601 57.6466 172.591 57.1028C167.463 55.0051 162.802 51.3925 158.49 46.0318C149.517 35.194 143.574 20.0442 141.01 1.16536C140.893 0.699218 140.777 0.349609 140.66 0H136.698C136.698 0 136.814 0.582681 136.814 0.93229C138.796 19.5781 143.574 34.2617 150.449 44.983C153.712 50.1106 157.325 53.6067 161.054 55.5878C163.501 56.8697 163.501 57.4524 163.035 61.7642C161.404 82.8573 158.723 103.368 155.344 122.829H155.46Z" fill="white"/>
<path d="M142.756 1.04427C145.437 19.457 151.147 34.3736 159.887 45.095C163.966 49.9895 168.394 53.4856 173.172 55.5833C176.202 56.8652 175.969 57.6809 175.62 61.8762C173.639 82.9693 170.376 103.596 166.064 122.941C160.12 148.929 151.963 173.052 142.174 194.844C137.046 205.682 131.802 215.704 126.092 225.144C133.201 215.471 139.96 205.099 146.02 193.795C157.79 172.353 167.462 148.346 174.571 122.359C179.698 103.363 183.777 82.8528 185.991 61.7597C186.302 59.429 185.836 57.9917 184.593 57.4478C178.533 55.3502 172.823 51.7376 167.695 46.3769C156.857 35.539 149.982 20.3893 146.719 1.39388C146.602 0.811197 146.486 0.578124 146.253 0.228516H142.523C142.523 0.228516 142.64 0.927733 142.756 1.16081V1.04427Z" fill="white"/>
<path d="M194.965 122.242C202.074 103.014 207.201 82.5031 210.464 61.6431C210.697 60.2447 210.814 58.7297 210.697 58.6132C210.464 58.3801 209.299 58.0305 208.483 57.7975C200.559 55.5833 192.984 51.8541 186.108 46.7265C171.891 35.6556 162.218 20.5058 158.023 1.51041C157.79 0.811197 157.673 0.461588 157.324 0.228516H154.527C154.527 0.228516 154.76 0.694661 154.76 0.927733C158.373 19.3405 166.414 34.1406 178.65 44.7454C184.36 49.6399 190.653 53.3691 197.412 55.3502C201.258 56.399 201.491 57.2148 200.908 61.8762C198.112 83.2024 193.567 103.596 187.274 123.058C178.883 149.045 167.696 173.168 154.061 194.961C149.166 202.536 144.039 209.877 138.562 216.636C145.321 209.528 151.614 201.72 157.557 193.446C173.056 172.003 185.875 147.997 195.198 122.242H194.965Z" fill="white"/>
<path d="M176.557 122.825C169.215 149.045 159.659 173.168 147.773 194.728C142.878 203.584 137.751 212.092 132.273 219.899C139.149 211.742 145.559 203.118 151.618 193.679C165.253 172.236 176.324 148.23 184.598 122.242C190.658 103.014 195.203 82.7362 198 61.6431C198.233 59.3124 197.611 57.9528 196.135 57.5644C189.26 55.4667 182.734 51.621 176.557 46.4934C164.088 35.4225 155.814 20.2728 151.852 1.51041C151.735 0.811197 151.618 0.461588 151.502 0.228516H148.239C148.239 0.228516 148.472 0.694661 148.472 0.927733C151.502 19.5735 158.494 34.2571 168.866 44.9785C173.993 49.873 179.238 53.6021 184.948 55.4667C188.444 56.7486 188.444 57.5644 187.978 61.9928C185.531 83.3189 181.685 103.713 176.324 123.058L176.557 122.825Z" fill="white"/>
<path d="M160.472 0.820312C164.784 19.233 173.873 33.8001 187.625 44.4049C194.384 49.5325 201.492 53.0286 209.067 55.0097C213.729 56.2916 213.962 57.1073 213.146 62.0019C210.116 83.0949 204.755 103.722 197.647 123.067C188.091 149.288 175.272 173.411 159.539 195.086C155.694 200.447 151.615 205.575 147.536 210.469C152.78 204.992 157.908 199.165 162.802 193.222C180.283 171.896 194.85 148.006 205.338 122.018C213.263 102.79 218.973 82.5123 222.702 61.4192C222.935 60.1373 223.052 58.9719 222.935 58.5058C222.702 58.2727 221.537 58.0396 220.488 57.9231C211.515 55.7089 203.007 51.9797 195.199 46.8521C179.117 35.7812 168.513 20.6315 163.385 1.40299C163.152 0.703775 163.035 0.354166 162.802 0.121094H160.355C160.355 0.121094 160.588 0.587239 160.588 0.820312H160.472Z" fill="white"/>
<path d="M269.197 138.799C260.923 127.728 249.152 121.086 234.119 118.872C249.386 116.075 260.69 109.665 267.798 99.5266C274.907 89.3879 278.52 78.3169 278.52 66.0806C278.52 46.0364 272.693 29.9544 260.923 17.9511C249.269 6.06445 231.322 0.121094 207.316 0.121094H166.179C166.179 0.121094 166.295 0.354166 166.412 0.587239C171.073 19 181.445 33.8001 196.944 44.1718C204.286 49.2994 212.444 52.7955 220.951 54.7766C226.078 56.0585 226.428 56.8743 225.612 61.8853C222 82.9784 216.056 103.605 208.132 123.067C197.294 149.288 182.843 173.411 165.13 195.086C150.446 212.916 134.131 228.649 116.418 241.934C115.252 242.983 113.97 243.332 112.922 243.332C112.572 243.332 111.873 243.332 111.523 242.866C111.523 242.866 111.407 242.866 111.29 242.75V243.332H210.113C232.138 243.332 249.502 237.272 262.321 225.036C275.14 212.916 281.55 196.834 281.55 176.907V176.441C281.55 162.107 277.354 149.521 269.08 138.45L269.197 138.799Z" fill="white"/>
<path d="M111.41 233.662V235.527C111.41 235.527 111.76 236.692 111.876 237.275C111.76 236.109 111.527 234.827 111.41 233.662Z" fill="white"/>
<path d="M118.986 194.266C117.355 211.28 115.723 226.663 113.742 239.482C117.355 226.43 121.084 211.28 123.881 194.033C127.96 172.59 130.99 148.351 133.437 122.596C134.369 113.39 135.068 103.834 135.651 94.1613C135.651 93.229 135.651 92.4133 135.768 91.481C136.35 81.6919 136.816 71.7864 137.283 61.7642C137.438 58.8897 137.244 57.1805 136.7 56.6366C134.719 54.4225 132.854 50.6933 130.99 45.5657C127.493 34.9609 125.279 19.8112 124.114 0.93229C124.114 0.582681 124.114 0.349609 123.997 0H119.103V0.93229C119.686 19.8112 120.967 34.7278 122.599 45.3326C123.648 50.4602 124.464 54.1894 125.396 56.1705C125.629 56.7532 125.745 56.9863 125.629 58.0351C125.862 58.8508 125.862 59.8997 125.862 61.7642C125.512 82.8573 124.697 103.368 123.881 122.596C122.832 148.234 121.201 172.357 119.219 194.266H118.986Z" fill="white"/>
<path d="M112.808 239.603V240.419L113.041 240.652C115.022 227.367 116.654 211.751 118.285 194.387C120.267 172.478 121.898 148.355 123.18 122.717C123.413 118.056 123.53 113.045 123.763 108.034C124.112 93.2336 124.578 77.7343 124.928 62.0019C125.083 58.9719 124.967 57.185 124.578 56.6412C123.763 54.5435 122.714 50.9309 121.898 45.8033C120.034 34.9654 119.101 20.0488 118.402 1.16992V0.121094H111.177V228.649C111.643 232.378 112.109 236.107 112.692 239.603H112.808Z" fill="white"/>
<path d="M143.573 122.484C146.253 103.489 148.234 82.9784 149.516 61.6523C149.672 59.0885 149.322 57.5346 148.467 56.9908C145.671 54.7766 142.757 51.0475 140.077 45.9199C134.833 35.082 131.337 19.9323 129.705 1.28646C129.705 0.820312 129.705 0.470703 129.589 0.121094H124.927C124.927 0.121094 125.044 0.703775 125.044 1.05338C126.092 19.9323 128.307 34.8489 131.803 45.4537C133.434 50.3482 135.299 54.0774 137.28 56.0585C138.329 57.1073 138.329 57.3404 138.096 61.7688C137.28 82.8619 136.115 103.372 134.25 122.601C131.803 148.588 128.773 172.711 124.694 194.271C122.014 209.187 118.984 222.705 115.721 234.825C120.848 222.705 125.277 209.187 129.589 194.037C135.299 172.595 140.193 148.355 143.689 122.368L143.573 122.484Z" fill="white"/>
<path d="M101.041 55.9348C101.041 55.9348 100.458 56.7506 100.458 58.0325V66.19C101.274 100.219 102.439 132.266 104.537 161.633C106.285 189.136 108.732 213.259 111.412 233.769V228.642C108.849 209.18 106.868 186.805 105.119 161.517C103.138 132.266 101.623 100.102 101.041 66.0735V63.9758C100.808 61.7616 100.808 59.4309 101.041 58.0325C101.041 56.7506 101.274 56.401 101.39 55.9348C101.39 55.7017 101.623 55.4687 101.623 55.3521C104.653 46.4954 106.751 28.3157 107.567 1.27929C107.567 0.929686 107.567 0.347005 107.8 -0.119141H107.217C107.217 -0.119141 106.984 0.81315 106.984 1.27929C106.168 28.3157 104.304 46.2623 101.274 55.1191C101.274 55.3521 101.041 55.5852 101.041 55.7017V55.9348Z" fill="white"/>
<path d="M111.41 235.517C105.7 214.541 100.805 189.602 96.9596 161.284C93.1139 132.033 90.2005 99.869 89.0351 65.8404C89.0351 65.2577 88.8021 64.5585 88.8021 63.9758C88.569 61.7616 88.569 59.4309 88.8021 58.0325C88.8021 56.9837 89.2682 56.634 89.6178 56.1679C89.8509 55.9348 89.9674 55.8183 90.2005 55.5852C96.2604 46.7285 100.223 28.5488 101.854 1.27929C101.854 0.696613 101.854 0.230468 102.087 -0.119141H101.271C101.271 -0.119141 101.038 0.81315 101.038 1.27929C99.4069 28.3157 95.5612 46.2623 89.6178 54.886L89.0351 55.4687C89.0351 55.4687 87.9863 56.5175 87.9863 57.6829C87.7532 59.3144 87.7532 61.5286 87.9863 63.8593V65.9569C89.3848 99.9855 92.2981 131.917 96.1439 161.4C99.7565 189.485 104.651 214.424 110.594 235.284C101.854 214.424 94.7454 189.369 88.8021 161.167C82.8587 132.15 79.013 99.9855 76.7988 65.7239C76.7988 65.1412 76.7988 64.3254 76.5658 63.6262C76.5658 61.412 76.3327 59.3144 76.5658 57.9159C76.7988 56.8671 77.1484 56.634 77.7311 56.2844C78.0807 56.0514 78.3138 55.8183 78.78 55.7018C87.7532 46.7285 93.6966 28.4323 96.1439 1.27929C96.1439 0.696613 96.2604 0.230468 96.3769 -0.119141H95.3281C95.3281 -0.119141 95.095 0.81315 95.095 1.27929C92.6478 28.0826 86.7044 46.1458 77.9642 54.7695C77.7311 55.0025 77.498 55.2356 77.1484 55.3521C76.5658 55.8183 75.5169 56.401 75.2839 57.7994C75.0508 59.1978 75.2839 61.5286 75.5169 63.7428V65.9569C77.7311 100.102 81.8099 132.266 87.7532 161.4C92.9974 187.97 99.7565 211.511 107.681 231.672C96.8431 211.627 87.8698 187.854 80.7611 161.284C72.8366 132.033 67.4759 100.102 64.6791 65.8404C64.6791 65.2577 64.446 64.5585 64.446 63.9758C64.2129 61.7616 63.8633 59.4309 64.2129 58.0325C64.446 57.2167 65.0287 56.9837 65.8444 56.634C66.3106 56.401 66.6602 56.1679 67.0098 55.8183C79.2461 46.9615 86.9375 28.7819 90.4336 1.51237C90.4336 0.81315 90.5501 0.230468 90.6667 -0.119141H89.2682C89.2682 -0.119141 89.0351 0.81315 89.0351 1.27929C85.5391 28.0826 78.0807 46.1458 66.194 54.7695C65.961 55.0025 65.6114 55.0025 65.1452 55.2356C64.3295 55.7017 63.1641 56.2844 62.6979 57.9159C62.3483 59.5474 62.4649 61.7616 62.931 64.0924C62.931 64.9081 62.931 65.4908 63.1641 66.19C65.8444 100.335 71.3216 132.499 79.2461 161.75C86.0052 186.922 94.2793 209.646 104.534 229.108C91.9485 209.646 81.1107 186.922 72.487 161.167C62.6979 132.15 55.9388 99.9855 52.3262 65.9569C52.3262 65.3743 52.3262 64.5585 52.0931 63.8593C51.8601 61.7616 51.5105 59.5475 51.8601 58.3821C52.0931 57.5663 52.9089 57.3333 53.8412 56.9837C54.4239 56.7506 54.89 56.5175 55.4727 56.1679C70.5059 47.3111 80.528 28.8984 84.6068 1.74544C84.8398 1.04622 84.8398 0.463541 85.1894 0.113932H83.2083C83.2083 0.113932 82.9753 1.04622 82.9753 1.39583C78.6634 28.1992 69.1074 46.2623 54.4239 54.886C54.0743 55.1191 53.6081 55.3521 53.2585 55.3521C52.0931 55.9348 50.5782 56.401 50.2286 58.0325C49.6459 59.664 49.9955 62.1112 50.2286 64.3254C50.4616 65.1412 50.4616 65.7239 50.6947 66.4231C54.1908 100.568 60.8334 132.732 70.8555 161.983C78.5469 185.057 88.2194 206.034 99.1738 224.446C85.306 206.034 73.8854 184.941 64.3294 161.4C52.5593 132.15 44.5183 100.219 40.323 66.19C40.323 65.6073 40.0899 64.7916 39.9734 64.0924C39.7403 61.9947 39.3907 59.7805 39.7403 58.6152C39.9734 58.0325 41.1387 57.5663 42.1875 57.2167C42.7702 56.9837 43.3529 56.7506 44.0521 56.634C62.3483 47.7773 74.235 29.3645 79.3626 1.97851C79.4792 1.04622 79.7122 0.696613 79.8288 0.347005H77.6146C77.6146 0.347005 77.265 1.16276 77.1484 1.6289C72.2539 28.4323 60.8334 46.2623 43.3529 54.886C42.7702 55.1191 42.3041 55.2356 41.7214 55.4687C40.323 55.9348 38.4584 56.5175 37.8757 58.149C37.293 59.7805 37.6426 62.2278 38.1088 64.442C38.3419 65.2577 38.3419 65.8404 38.5749 66.5396C42.8868 100.685 50.8112 132.849 62.5814 162.332C71.3216 183.775 81.6934 203.237 93.9297 220.717C79.2461 203.12 66.7767 183.309 56.405 161.4C42.7702 132.383 33.3308 100.335 28.4363 66.4231C28.2032 65.6073 28.0867 65.0247 28.0867 64.2089C27.6205 62.3443 27.2709 60.1301 27.6205 59.0813C28.0867 58.4986 29.252 58.0325 30.4174 57.6829C31.2331 57.4498 31.8158 57.2167 32.3985 57.1002C53.8412 48.2434 67.709 29.8307 73.5358 2.21159C73.6524 1.2793 73.8854 0.81315 74.235 0.580077H71.5547C71.5547 0.580077 71.2051 1.39583 71.0886 1.86198C65.3783 28.4323 52.0931 46.2623 31.5828 54.886C31.0001 55.1191 30.4174 55.3521 29.7182 55.4687C28.0867 55.9348 26.1055 56.5175 25.2898 58.149C24.7071 60.0136 25.0567 62.4609 25.5229 64.675C25.7559 65.4908 25.7559 66.0735 25.989 66.7727C30.8835 101.151 40.4395 133.315 54.0743 162.566C63.2806 181.794 74.002 199.624 86.4713 215.823C71.5547 199.624 58.9688 181.211 48.1309 161.4C32.6316 132.383 21.7937 100.335 16.0834 66.4231C16.0834 65.8404 15.8504 65.1412 15.7338 64.3254C15.2677 62.4609 14.9181 60.4797 15.2677 59.1978C15.7338 58.6152 17.2488 58.149 18.5307 57.9159C19.3464 57.6829 20.1622 57.4498 20.9779 57.3333C45.334 47.7773 61.2995 29.248 67.9421 1.86198C68.2917 0.81315 68.6413 0.347005 68.9909 -0.00260433H65.7279C65.7279 -0.00260433 65.3783 0.580077 65.2617 1.04622C58.7357 27.6165 43.4695 45.4466 20.0457 54.0702C19.463 54.3033 18.8803 54.5364 18.0645 54.6529C16.0834 55.1191 13.7527 55.7018 12.9369 57.5663C12.1212 59.4309 12.5873 61.8782 13.17 64.3254C13.4031 64.9081 13.4031 65.7239 13.5196 66.4231C19.2299 100.568 30.0678 132.732 45.6836 162.216C55.4727 180.396 67.1263 197.41 80.2949 212.793C65.0287 197.06 51.3939 179.813 39.9734 160.818C22.6095 131.683 10.4897 99.7525 4.19672 65.7239C3.96365 65.1412 3.73058 64.3254 3.61404 63.6262C3.26443 61.7616 2.79829 59.7805 3.26443 58.7317C3.61404 58.149 5.71169 57.6829 6.87705 57.4498C7.92588 57.2167 8.74164 56.9837 9.55739 56.8671C37.06 47.8938 54.7735 29.4811 62.2318 1.86198C62.5814 0.81315 62.931 0.347005 63.3972 -0.00260433H59.7845C59.7845 -0.00260433 59.4349 0.696613 59.3184 1.04622C51.9766 27.6165 34.8458 45.4466 8.6251 53.8372C7.80935 54.0702 6.99359 54.3033 6.17784 54.4199C3.96365 55.0025 1.51639 55.4687 0.467559 57.3333C-0.581268 59.4309 0.11795 61.8782 0.700632 64.442C0.933704 65.0247 0.933704 65.7239 1.16678 66.3066C7.45974 100.452 19.696 132.849 37.4096 162.332C56.405 193.215 80.6445 220.251 109.546 242.16C110.245 242.743 110.827 242.976 111.294 243.092V235.517H111.41Z" fill="white"/>
</g>
<defs>
<clipPath id="clip0_91_607">
<rect width="1195.66" height="246.707" fill="white"/>
</clipPath>
</defs>
</svg>
