<svg width="146" height="31" viewBox="0 0 146 31" fill="none" xmlns="http://www.w3.org/2000/svg">
<g clip-path="url(#clip0_47_1651)">
<path d="M50.2907 22.6376C50.2907 23.9528 49.9231 24.9709 49.1877 25.6922C48.4524 26.4134 47.3918 26.781 46.02 26.781C44.6483 26.781 43.5877 26.3709 42.8382 25.5649C42.0887 24.7588 41.7069 23.6134 41.7069 22.1427V9.31641H37.5635V22.1427C37.5635 24.872 38.1998 26.979 39.4584 28.478C40.7312 29.977 42.5271 30.7265 44.8604 30.7265C46.3877 30.7265 47.6322 30.3588 48.5796 29.5952C49.3574 28.9871 49.8948 28.28 50.2907 27.5305V30.4154H54.42V9.31641H50.2907V22.6376Z" fill="#0A58EB"/>
<path d="M62.8063 26.5826C62.3962 26.5826 62.0851 26.4412 61.8588 26.1583C61.6325 25.8755 61.5194 25.4796 61.5194 24.9846V0.859375H57.376V24.928C57.376 26.7099 57.8144 28.0816 58.677 29.0573C59.5396 30.0331 60.7558 30.5139 62.3113 30.5139H64.7436V26.5685H62.7921L62.8063 26.5826Z" fill="#0A58EB"/>
<g opacity="0.36">
<path d="M64.4463 30.4857L64.517 9.38672H68.8443L67.8968 24.4473L77.8523 9.38672H80.7372L81.3028 24.4473L89.7311 9.38672H94.0584L80.9776 30.4857H77.8523L77.2584 15.9059L67.5715 30.4857H64.4463Z" fill="#0A58EB"/>
<path d="M95.2888 30.7823C92.7009 30.7823 90.9333 30.2449 89.9716 29.1701C89.01 28.0954 88.8686 26.455 89.5615 24.2489C90.212 22.156 91.3009 20.5863 92.7999 19.5398C94.3131 18.5075 96.2504 17.9843 98.6262 17.9843H104.622L103.873 21.3217H97.608C96.5332 21.3217 95.6565 21.5621 94.9636 22.0429C94.2706 22.5237 93.7757 23.259 93.4646 24.2489C93.1252 25.3237 93.2383 26.1156 93.804 26.6247C94.3555 27.1338 95.3595 27.4025 96.8019 27.4025C98.3716 27.4025 99.6019 27.2328 100.493 26.8934C101.384 26.554 101.949 26.0307 102.162 25.3095L101.667 28.2792C101.129 28.8449 100.521 29.3115 99.8706 29.6792C99.2201 30.0469 98.5131 30.3156 97.7494 30.4994C96.9858 30.6833 96.1797 30.7681 95.2888 30.7681V30.7823ZM100.549 30.4853L104.721 17.1075C105.145 15.7217 105.117 14.6469 104.622 13.8833C104.127 13.1196 103.194 12.7378 101.836 12.7378C101.016 12.7378 100.153 12.8651 99.2767 13.1196C98.3858 13.3742 97.5514 13.7277 96.7737 14.2085L94.3979 12.1297C95.5009 11.1681 96.7878 10.4186 98.2585 9.88126C99.7292 9.34388 101.271 9.0752 102.869 9.0752C105.513 9.0752 107.351 9.75398 108.37 11.1257C109.388 12.4974 109.515 14.4206 108.737 16.9237L104.509 30.4853H100.564H100.549Z" fill="#0A58EB"/>
<path d="M107.465 30.4853L114.041 9.38631H118.184L111.608 30.4853H107.465ZM124.095 14.3924C123.869 13.9398 123.515 13.6004 123.035 13.3742C122.554 13.1479 121.946 13.0348 121.21 13.0348C119.895 13.0348 118.764 13.4025 117.816 14.1237C116.869 14.8449 116.19 15.8489 115.794 17.1358L116.628 13.0631C117.661 11.8186 118.792 10.8429 120.051 10.1358C121.309 9.42873 122.554 9.0752 123.798 9.0752C124.76 9.0752 125.594 9.21661 126.273 9.4853C126.966 9.76812 127.517 10.1782 127.927 10.7156L124.081 14.3782L124.095 14.3924Z" fill="#0A58EB"/>
<path d="M121.902 30.4852L131.108 0.929688H135.252L126.046 30.4852H121.902ZM124.391 27.3883L126.187 22.467L141.121 9.37211H145.999L124.391 27.3883ZM135.945 30.4852L132.381 18.3095L135.902 15.5378L140.456 30.4852H135.945Z" fill="#0A58EB"/>
</g>
<path d="M16.805 0.972976C17.003 3.2356 17.4273 5.0457 18.0353 6.33257C18.3606 6.95479 18.6717 7.37903 19.0252 7.61944C19.2232 7.77499 19.2232 7.78913 19.1667 8.34065C19.0394 10.9002 18.799 13.3891 18.4737 15.7225C18.0495 18.876 17.4556 21.8033 16.7485 24.4477C16.2818 26.1305 15.7586 27.672 15.2354 29.0437C15.9707 27.6578 16.6495 26.1164 17.2859 24.3911C18.2192 21.7891 18.997 18.8477 19.5909 15.6942C20.0151 13.3608 20.3263 10.872 20.5242 8.31237C20.5431 8.00126 20.496 7.8127 20.3828 7.74671C19.8879 7.49216 19.4495 7.05378 19.0252 6.40328C18.1626 5.08813 17.597 3.27803 17.3141 0.987117C17.3141 0.930552 17.3141 0.888127 17.3 0.845703H16.7768C16.7768 0.845703 16.7909 0.91641 16.7909 0.958834L16.805 0.972976Z" fill="#0A58EB"/>
<path d="M19.7744 15.7507C19.1804 18.9043 18.4168 21.8316 17.4693 24.4477C16.9319 25.9608 16.338 27.3326 15.6875 28.577C16.5077 27.3043 17.2713 25.8901 17.9643 24.377C19.1521 21.775 20.1138 18.8336 20.835 15.7083C21.3723 13.375 21.7683 10.8861 21.9946 8.32651C22.0229 8.02482 21.9757 7.84099 21.8532 7.77499C21.2309 7.52045 20.6653 7.08206 20.142 6.43156C19.0532 5.11641 18.3319 3.27802 18.0208 0.987117C18.0067 0.930552 17.9925 0.888127 17.9784 0.845703H17.4976C17.4976 0.845703 17.5117 0.91641 17.5117 0.958834C17.7521 3.22146 18.3319 5.00328 19.1663 6.30429C19.5622 6.92651 20.0006 7.35075 20.4532 7.59115C20.7501 7.74671 20.7501 7.81742 20.6936 8.34065C20.4956 10.9002 20.1703 13.3891 19.7602 15.7507H19.7744Z" fill="#0A58EB"/>
<path d="M18.2332 0.972037C18.5584 3.20638 19.2513 5.01648 20.3119 6.31749C20.8069 6.91143 21.3443 7.33567 21.9241 7.59022C22.2917 7.74577 22.2635 7.84476 22.221 8.35385C21.9806 10.9134 21.5847 13.4165 21.0614 15.7639C20.3402 18.9175 19.3503 21.8448 18.1625 24.4892C17.5402 25.8043 16.9039 27.0205 16.2109 28.166C17.0736 26.9922 17.8938 25.7336 18.6291 24.3619C20.0574 21.7599 21.2311 18.8468 22.0938 15.6932C22.716 13.3882 23.2109 10.8993 23.4796 8.33971C23.5173 8.05688 23.4608 7.88247 23.3099 7.81648C22.5746 7.56193 21.8816 7.12355 21.2594 6.47304C19.9443 5.15789 19.1099 3.31951 18.714 1.01446C18.6998 0.943754 18.6857 0.915471 18.6574 0.873047H18.2049C18.2049 0.873047 18.219 0.957895 18.2332 0.986178V0.972037Z" fill="#0A58EB"/>
<path d="M24.5671 15.6791C25.4297 13.3458 26.0519 10.8569 26.4479 8.32557C26.4762 8.15587 26.4903 7.97203 26.4762 7.95789C26.4479 7.92961 26.3065 7.88718 26.2075 7.8589C25.2459 7.59022 24.3267 7.13769 23.4923 6.51547C21.7671 5.17203 20.5934 3.33365 20.0843 1.0286C20.056 0.943754 20.0418 0.90133 19.9994 0.873047H19.66C19.66 0.873047 19.6883 0.929613 19.6883 0.957895C20.1267 3.19224 21.1025 4.9882 22.5873 6.27506C23.2802 6.869 24.0439 7.32153 24.8641 7.56193C25.3307 7.68921 25.359 7.78819 25.2883 8.35385C24.9489 10.9417 24.3974 13.4165 23.6338 15.7781C22.6156 18.9316 21.258 21.8589 19.6035 24.5033C19.0095 25.4225 18.3873 26.3134 17.7227 27.1336C18.5429 26.271 19.3065 25.3235 20.0277 24.3195C21.9085 21.7175 23.4641 18.8043 24.5954 15.6791H24.5671Z" fill="#0A58EB"/>
<path d="M22.3327 15.7498C21.4418 18.9316 20.2822 21.8589 18.8398 24.4751C18.2459 25.5498 17.6236 26.5821 16.959 27.5296C17.7933 26.5397 18.5711 25.4932 19.3065 24.3478C20.961 21.7458 22.3044 18.8326 23.3085 15.6791C24.0438 13.3458 24.5953 10.8852 24.9347 8.32557C24.963 8.04274 24.8876 7.87776 24.7085 7.83062C23.8741 7.57607 23.0822 7.10941 22.3327 6.48719C20.8196 5.14375 19.8155 3.30537 19.3347 1.0286C19.3206 0.943754 19.3065 0.90133 19.2923 0.873047H18.8964C18.8964 0.873047 18.9246 0.929612 18.9246 0.957895C19.2923 3.22052 20.1408 5.00234 21.3994 6.30335C22.0216 6.89729 22.658 7.34981 23.3509 7.57607C23.7751 7.73163 23.7751 7.83062 23.7186 8.36799C23.4216 10.9559 22.9549 13.4306 22.3044 15.7781L22.3327 15.7498Z" fill="#0A58EB"/>
<path d="M20.3822 0.944223C20.9054 3.17857 22.0085 4.94624 23.6771 6.23311C24.4973 6.85533 25.36 7.27957 26.2792 7.51998C26.8448 7.67553 26.8731 7.77452 26.7741 8.36846C26.4064 10.9281 25.7559 13.4311 24.8933 15.7786C23.7337 18.9604 22.1782 21.8876 20.2691 24.5179C19.8024 25.1685 19.3074 25.7907 18.8125 26.3846C19.4489 25.72 20.0711 25.0129 20.665 24.2917C22.7862 21.7038 24.5539 18.8048 25.8266 15.6513C26.7883 13.318 27.4812 10.8573 27.9337 8.29775C27.962 8.1422 27.9761 8.00079 27.962 7.94422C27.9337 7.91594 27.7923 7.88765 27.665 7.87351C26.5761 7.60483 25.5438 7.1523 24.5963 6.53008C22.6448 5.18665 21.358 3.34826 20.7357 1.01493C20.7074 0.930082 20.6933 0.887658 20.665 0.859375H20.3681C20.3681 0.859375 20.3963 0.915941 20.3963 0.944223H20.3822Z" fill="#0A58EB"/>
<path d="M33.5766 17.6876C32.5726 16.3442 31.1443 15.5382 29.3201 15.2695C31.1726 14.9301 32.5443 14.1523 33.4069 12.922C34.2696 11.6917 34.708 10.3483 34.708 8.86341C34.708 6.43109 34.0009 4.47958 32.5726 3.02301C31.1585 1.58059 28.9807 0.859375 26.0676 0.859375H21.0756C21.0756 0.859375 21.0898 0.887658 21.1039 0.915941C21.6696 3.15028 22.9282 4.94624 24.809 6.20483C25.6999 6.82705 26.6898 7.25129 27.7221 7.49169C28.3443 7.64725 28.3868 7.74624 28.2878 8.35432C27.8494 10.9139 27.1282 13.4169 26.1665 15.7786C24.8514 18.9604 23.0979 21.8876 20.9484 24.5179C19.1666 26.6816 17.1868 28.5907 15.0373 30.2028C14.8958 30.3301 14.7403 30.3725 14.613 30.3725C14.5706 30.3725 14.4857 30.3725 14.4433 30.3159C14.4433 30.3159 14.4292 30.3159 14.415 30.3018V30.3725H26.407C29.0797 30.3725 31.1867 29.6371 32.7423 28.1523C34.2979 26.6816 35.0756 24.7301 35.0756 22.3119V22.2553C35.0756 20.5159 34.5665 18.9887 33.5625 17.6452L33.5766 17.6876Z" fill="#0A58EB"/>
<path d="M14.4287 29.1992V29.4255C14.4287 29.4255 14.4711 29.5669 14.4853 29.6376C14.4711 29.4962 14.4429 29.3406 14.4287 29.1992Z" fill="#0A58EB"/>
<path d="M15.3473 24.4194C15.1493 26.4841 14.9513 28.3507 14.7109 29.9063C15.1493 28.3225 15.6018 26.4841 15.9412 24.3911C16.4362 21.7891 16.8039 18.8477 17.1008 15.7225C17.214 14.6053 17.2988 13.4457 17.3695 12.272C17.3695 12.1588 17.3695 12.0598 17.3837 11.9467C17.4544 10.7588 17.5109 9.55681 17.5675 8.34065C17.5864 7.99183 17.5628 7.78442 17.4968 7.71843C17.2564 7.44974 17.0301 6.99721 16.8039 6.37499C16.3796 5.08812 16.1109 3.24974 15.9695 0.958834C15.9695 0.91641 15.9695 0.888127 15.9554 0.845703H15.3614V0.958834C15.4321 3.24974 15.5877 5.05984 15.7857 6.34671C15.913 6.96893 16.0119 7.42146 16.1251 7.66186C16.1534 7.73257 16.1675 7.76085 16.1534 7.88812C16.1816 7.98711 16.1816 8.11439 16.1816 8.34065C16.1392 10.9002 16.0402 13.3891 15.9412 15.7225C15.814 18.8336 15.616 21.7608 15.3756 24.4194H15.3473Z" fill="#0A58EB"/>
<path d="M14.5993 29.92V30.019L14.6276 30.0472C14.868 28.4351 15.066 26.5402 15.264 24.4331C15.5044 21.7745 15.7024 18.8472 15.8579 15.7361C15.8862 15.1705 15.9004 14.5624 15.9286 13.9543C15.9711 12.1584 16.0276 10.2776 16.0701 8.36846C16.0889 8.00079 16.0748 7.78395 16.0276 7.71796C15.9286 7.46341 15.8014 7.02503 15.7024 6.40281C15.4761 5.08766 15.363 3.27756 15.2781 0.986648V0.859375H14.4014V28.5907C14.4579 29.0432 14.5145 29.4957 14.5852 29.92H14.5993Z" fill="#0A58EB"/>
<path d="M18.3319 15.7079C18.6572 13.4028 18.8976 10.9139 19.0532 8.32604C19.072 8.01493 19.0296 7.82637 18.9259 7.76038C18.5865 7.49169 18.233 7.03917 17.9077 6.41695C17.2713 5.1018 16.8471 3.26341 16.6491 1.00079C16.6491 0.944223 16.6491 0.901799 16.635 0.859375H16.0693C16.0693 0.859375 16.0835 0.930082 16.0835 0.972506C16.2107 3.26341 16.4794 5.07351 16.9037 6.36038C17.1016 6.95432 17.3279 7.40685 17.5683 7.64725C17.6956 7.77452 17.6956 7.80281 17.6673 8.34018C17.5683 10.8998 17.4269 13.3887 17.2006 15.722C16.9037 18.8755 16.536 21.8028 16.041 24.419C15.7158 26.2291 15.3481 27.8695 14.9521 29.3402C15.5744 27.8695 16.1117 26.2291 16.635 24.3907C17.3279 21.7887 17.9218 18.8472 18.3461 15.6937L18.3319 15.7079Z" fill="#0A58EB"/>
<path d="M13.1693 7.63405C13.1693 7.63405 13.0986 7.73304 13.0986 7.88859V8.87849C13.1976 13.0078 13.339 16.8967 13.5936 20.4603C13.8057 23.7977 14.1027 26.7249 14.4279 29.2138V28.5916C14.1168 26.23 13.8764 23.5148 13.6643 20.4462C13.4239 16.8967 13.24 12.9936 13.1693 8.86435V8.6098C13.1411 8.34112 13.1411 8.05829 13.1693 7.88859C13.1693 7.73304 13.1976 7.69061 13.2118 7.63405C13.2118 7.60577 13.24 7.57748 13.24 7.56334C13.6077 6.48859 13.8623 4.28253 13.9613 1.00173C13.9613 0.959304 13.9613 0.888597 13.9895 0.832031H13.9188C13.9188 0.832031 13.8906 0.945162 13.8906 1.00173C13.7916 4.28253 13.5653 6.46031 13.1976 7.53506C13.1976 7.56334 13.1693 7.59162 13.1693 7.60577V7.63405Z" fill="#0A58EB"/>
<path d="M14.4286 29.426C13.7357 26.8805 13.1418 23.8542 12.6751 20.4179C12.2084 16.8684 11.8549 12.9654 11.7135 8.83607C11.7135 8.76536 11.6852 8.68051 11.6852 8.60981C11.6569 8.34112 11.6569 8.05829 11.6852 7.88859C11.6852 7.76132 11.7418 7.7189 11.7842 7.66233C11.8125 7.63405 11.8266 7.61991 11.8549 7.59162C12.5903 6.51688 13.0711 4.31082 13.269 1.00173C13.269 0.931021 13.269 0.874455 13.2973 0.832031H13.1983C13.1983 0.832031 13.17 0.945163 13.17 1.00173C12.9721 4.28253 12.5054 6.46031 11.7842 7.50678L11.7135 7.57748C11.7135 7.57748 11.5862 7.70476 11.5862 7.84617C11.5579 8.04415 11.5579 8.31284 11.5862 8.59566V8.85021C11.7559 12.9795 12.1094 16.8542 12.5761 20.432C13.0145 23.8401 13.6084 26.8664 14.3296 29.3977C13.269 26.8664 12.4064 23.826 11.6852 20.4037C10.964 16.8825 10.4973 12.9795 10.2286 8.82193C10.2286 8.75122 10.2286 8.65223 10.2004 8.56738C10.2004 8.29869 10.1721 8.04415 10.2004 7.87445C10.2286 7.74718 10.2711 7.7189 10.3418 7.67647C10.3842 7.64819 10.4125 7.61991 10.469 7.60577C11.5579 6.51688 12.2791 4.29668 12.5761 1.00173C12.5761 0.931021 12.5903 0.874455 12.6044 0.832031H12.4771C12.4771 0.832031 12.4488 0.945163 12.4488 1.00173C12.1519 4.25425 11.4307 6.44617 10.3701 7.49263C10.3418 7.52092 10.3135 7.5492 10.2711 7.56334C10.2004 7.61991 10.0731 7.69061 10.0448 7.86031C10.0165 8.03001 10.0448 8.31284 10.0731 8.58152V8.85021C10.3418 12.9936 10.8367 16.8967 11.5579 20.432C12.1943 23.6563 13.0145 26.5128 13.9761 28.9593C12.661 26.527 11.5721 23.6421 10.7094 20.4179C9.74783 16.8684 9.09733 12.9936 8.75793 8.83607C8.75793 8.76536 8.72965 8.68051 8.72965 8.60981C8.70137 8.34112 8.65894 8.05829 8.70137 7.88859C8.72965 7.7896 8.80036 7.76132 8.89934 7.7189C8.95591 7.69061 8.99833 7.66233 9.04076 7.61991C10.5256 6.54516 11.4589 4.3391 11.8832 1.03001C11.8832 0.945163 11.8973 0.874455 11.9115 0.832031H11.7418C11.7418 0.832031 11.7135 0.945163 11.7135 1.00173C11.2892 4.25425 10.3842 6.44617 8.94177 7.49263C8.91349 7.52092 8.87106 7.52092 8.8145 7.5492C8.71551 7.60577 8.57409 7.67647 8.51753 7.87445C8.4751 8.07243 8.48924 8.34112 8.54581 8.62395C8.54581 8.72294 8.54581 8.79364 8.57409 8.87849C8.89934 13.0219 9.56399 16.925 10.5256 20.4744C11.3458 23.529 12.3498 26.2866 13.5943 28.6482C12.067 26.2866 10.7519 23.529 9.70541 20.4037C8.51753 16.8825 7.69733 12.9795 7.25894 8.85021C7.25894 8.7795 7.25894 8.68051 7.23066 8.59566C7.20238 8.34112 7.15995 8.07243 7.20238 7.93102C7.23066 7.83203 7.32965 7.80375 7.44278 7.76132C7.51349 7.73304 7.57005 7.70476 7.64076 7.66233C9.465 6.58758 10.6812 4.35324 11.1761 1.05829C11.2044 0.973445 11.2044 0.902738 11.2468 0.860314H11.0064C11.0064 0.860314 10.9781 0.973445 10.9781 1.01587C10.4549 4.26839 9.2953 6.46031 7.51349 7.50678C7.47106 7.53506 7.4145 7.56334 7.37207 7.56334C7.23066 7.63405 7.04682 7.69061 7.0044 7.88859C6.93369 8.08657 6.97611 8.38354 7.0044 8.65223C7.03268 8.75122 7.03268 8.82193 7.06096 8.90677C7.4852 13.0502 8.29126 16.9532 9.50743 20.5027C10.4408 23.3027 11.6145 25.8482 12.9438 28.0825C11.261 25.8482 9.8751 23.2886 8.71551 20.432C7.28722 16.8825 6.31147 13.0078 5.80238 8.87849C5.80238 8.80779 5.77409 8.7088 5.75995 8.62395C5.73167 8.3694 5.68925 8.10072 5.73167 7.9593C5.75995 7.88859 5.90137 7.83203 6.02864 7.7896C6.09935 7.76132 6.17005 7.73304 6.2549 7.7189C8.4751 6.64415 9.91753 4.40981 10.5397 1.08658C10.5539 0.973445 10.5822 0.931021 10.5963 0.888597H10.3276C10.3276 0.888597 10.2852 0.987587 10.2711 1.04415C9.67712 4.29668 8.29126 6.46031 6.17005 7.50678C6.09935 7.53506 6.04278 7.5492 5.97207 7.57748C5.80238 7.63405 5.57611 7.70475 5.50541 7.90273C5.4347 8.10071 5.47712 8.39768 5.53369 8.66637C5.56197 8.76536 5.56197 8.83607 5.59026 8.92092C6.11349 13.0643 7.0751 16.9674 8.50339 20.5452C9.56399 23.1472 10.8226 25.5088 12.3074 27.63C10.5256 25.4946 9.01248 23.0906 7.75389 20.432C6.09935 16.9108 4.95389 13.0219 4.35995 8.90677C4.33167 8.80779 4.31753 8.73708 4.31753 8.63809C4.26096 8.41183 4.21854 8.14314 4.26096 8.01587C4.31753 7.94516 4.45894 7.88859 4.60036 7.84617C4.69935 7.81789 4.77005 7.7896 4.84076 7.77546C7.44278 6.70072 9.12561 4.46637 9.83268 1.11486C9.84682 1.00173 9.8751 0.945163 9.91753 0.91688H9.59227C9.59227 0.91688 9.54985 1.01587 9.53571 1.07244C8.84278 4.29668 7.23066 6.46031 4.74177 7.50678C4.67106 7.53506 4.60036 7.56334 4.51551 7.57748C4.31753 7.63405 4.07713 7.70475 3.97814 7.90273C3.90743 8.129 3.94985 8.42597 4.00642 8.69465C4.0347 8.79364 4.0347 8.86435 4.06298 8.9492C4.65692 13.1209 5.81652 17.0239 7.47106 20.5734C8.58823 22.9068 9.88924 25.0704 11.4024 27.0361C9.59227 25.0704 8.065 22.8361 6.74985 20.432C4.86904 16.9108 3.55389 13.0219 2.86096 8.90677C2.86096 8.83607 2.83268 8.75122 2.81854 8.65223C2.76197 8.42597 2.71955 8.18556 2.76197 8.03001C2.81854 7.9593 3.00238 7.90273 3.15793 7.87445C3.25692 7.84617 3.35591 7.81789 3.4549 7.80375C6.41046 6.64415 8.34783 4.39567 9.15389 1.07244C9.19631 0.945163 9.23874 0.888597 9.28116 0.846173H8.8852C8.8852 0.846173 8.84278 0.91688 8.82864 0.973445C8.03672 4.19769 6.1842 6.36132 3.34177 7.40779C3.27106 7.43607 3.20036 7.46435 3.10137 7.47849C2.86096 7.53506 2.57814 7.60577 2.47915 7.83203C2.38016 8.05829 2.43672 8.35526 2.50743 8.65223C2.53571 8.72294 2.53571 8.82193 2.54985 8.90677C3.24278 13.0502 4.55793 16.9532 6.45288 20.531C7.64076 22.7371 9.0549 24.8017 10.6529 26.6684C8.80035 24.7593 7.14581 22.6664 5.75995 20.3613C3.65288 16.826 2.18218 12.9512 1.41854 8.82193C1.39026 8.75122 1.36197 8.65223 1.34783 8.56738C1.30541 8.34112 1.24884 8.10071 1.30541 7.97344C1.34783 7.90274 1.60238 7.84617 1.74379 7.81789C1.87107 7.7896 1.97006 7.76132 2.06905 7.74718C5.40642 6.65829 7.55591 4.42395 8.46096 1.07244C8.50339 0.945163 8.54581 0.888597 8.60238 0.846173H8.16399C8.16399 0.846173 8.12157 0.931021 8.10743 0.973445C7.21652 4.19769 5.13773 6.36132 1.95591 7.3795C1.85692 7.40779 1.75793 7.43607 1.65894 7.45021C1.39026 7.52092 1.09329 7.57748 0.966016 7.80375C0.838743 8.05829 0.923591 8.35526 0.994298 8.66637C1.02258 8.73708 1.02258 8.82193 1.05086 8.89263C1.8145 13.0361 3.29935 16.9674 5.44884 20.5452C7.75389 24.2926 10.6953 27.5734 14.2024 30.232C14.2872 30.3027 14.3579 30.331 14.4145 30.3451V29.426H14.4286Z" fill="#0A58EB"/>
</g>
<defs>
<clipPath id="clip0_47_1651">
<rect width="145.091" height="29.9374" fill="white" transform="translate(0.90918 0.845703)"/>
</clipPath>
</defs>
</svg>
