<svg width="17" height="17" viewBox="0 0 17 17" fill="none" xmlns="http://www.w3.org/2000/svg">
<path d="M14.7034 9.69141H1.33594V14.0358H14.7034V9.69141Z" stroke="black" stroke-opacity="0.65" stroke-width="1.33675" stroke-linejoin="round"/>
<path d="M11.8628 12.7002C12.3242 12.7002 12.6983 12.3262 12.6983 11.8648C12.6983 11.4034 12.3242 11.0293 11.8628 11.0293C11.4014 11.0293 11.0273 11.4034 11.0273 11.8648C11.0273 12.3262 11.4014 12.7002 11.8628 12.7002Z" fill="black" fill-opacity="0.65"/>
<path d="M11.8633 11.1963C12.2322 11.1965 12.5312 11.4963 12.5312 11.8652C12.531 12.234 12.232 12.533 11.8633 12.5332C11.4943 12.5332 11.1946 12.2341 11.1943 11.8652C11.1943 11.4961 11.4942 11.1963 11.8633 11.1963Z" stroke="black" stroke-opacity="0.65" stroke-width="0.334188"/>
<path d="M1.33594 9.69069L3.0197 1.66992H13.0394L14.7034 9.69069" stroke="black" stroke-opacity="0.65" stroke-width="1.33675" stroke-linejoin="round"/>
<path d="M6.35243 5.35547C5.63643 5.35547 5.01367 5.85224 5.01367 6.52075C5.01367 7.35187 5.7137 7.68606 6.58345 7.68606C6.73263 7.68606 6.87065 7.68606 7.01105 7.68606" stroke="black" stroke-opacity="0.65" stroke-width="1.33675" stroke-linecap="round" stroke-linejoin="round"/>
<path d="M9.69456 5.35547C10.3953 5.35547 11.029 5.6808 11.029 6.52075C11.029 7.35187 10.3239 7.68606 9.45418 7.68606C9.30496 7.68606 9.15795 7.68606 9.01953 7.68606" stroke="black" stroke-opacity="0.65" stroke-width="1.33675" stroke-linecap="round" stroke-linejoin="round"/>
<path d="M9.69378 5.35544C9.69378 4.35829 9.03081 3.67578 8.02046 3.67578C7.01015 3.67578 6.35156 4.34172 6.35156 5.35544" stroke="black" stroke-opacity="0.65" stroke-width="1.33675" stroke-linecap="round" stroke-linejoin="round"/>
<path d="M6.68359 7.68555H9.3571" stroke="black" stroke-opacity="0.65" stroke-width="1.33675"/>
</svg>
