<svg width="13" height="13" viewBox="0 0 13 13" fill="none" xmlns="http://www.w3.org/2000/svg">
<path d="M6.55391 6.5L6.5 11.7208" stroke="black" stroke-width="0.8125" stroke-linecap="round" stroke-linejoin="round"/>
<path opacity="0.3" d="M11.1719 8.90374V4.09655C11.1719 4.02461 11.1528 3.95396 11.1165 3.89182C11.0803 3.82968 11.0282 3.77829 10.9655 3.74289L6.6999 1.33188C6.63891 1.29741 6.57005 1.2793 6.5 1.2793C6.42995 1.2793 6.36109 1.29741 6.3001 1.33188L2.03448 3.74289C1.97185 3.77829 1.91974 3.82968 1.88348 3.89182C1.84723 3.95396 1.82813 4.02461 1.82813 4.09655V8.90374C1.82812 8.97568 1.84723 9.04633 1.88348 9.10847C1.91974 9.17061 1.97185 9.222 2.03448 9.2574L6.3001 11.6684C6.36109 11.7029 6.42995 11.721 6.5 11.721C6.57005 11.721 6.63891 11.7029 6.6999 11.6684L10.9655 9.2574C11.0282 9.222 11.0803 9.17061 11.1165 9.10847C11.1528 9.04633 11.1719 8.97568 11.1719 8.90374V8.90374Z" stroke="black" stroke-width="0.8125" stroke-linecap="round" stroke-linejoin="round"/>
<path d="M11.1149 3.89118L6.55261 6.49997L1.88281 3.89062" stroke="black" stroke-width="0.8125" stroke-linecap="round" stroke-linejoin="round"/>
</svg>
