<svg width="18" height="18" viewBox="0 0 18 18" fill="none" xmlns="http://www.w3.org/2000/svg">
<path d="M8.97656 5.04883V6.17078" stroke="#0A58EB" stroke-width="1.12195" stroke-linecap="round" stroke-linejoin="round"/>
<path d="M8.97656 11.7803V12.9022" stroke="#0A58EB" stroke-width="1.12195" stroke-linecap="round" stroke-linejoin="round"/>
<path d="M8.97583 15.7075C12.6936 15.7075 15.7075 12.6936 15.7075 8.97583C15.7075 5.25802 12.6936 2.24414 8.97583 2.24414C5.25802 2.24414 2.24414 5.25802 2.24414 8.97583C2.24414 12.6936 5.25802 15.7075 8.97583 15.7075Z" stroke="#0A58EB" stroke-width="1.12195" stroke-linecap="round" stroke-linejoin="round"/>
<path d="M7.2934 11.7806H9.81778C10.1897 11.7806 10.5464 11.6329 10.8095 11.3699C11.0725 11.1069 11.2202 10.7502 11.2202 10.3782C11.2202 10.0063 11.0725 9.64954 10.8095 9.38653C10.5464 9.12353 10.1897 8.97577 9.81778 8.97577H8.13486C7.76291 8.97577 7.40619 8.82801 7.14319 8.56501C6.88018 8.302 6.73242 7.94528 6.73242 7.57333C6.73242 7.20138 6.88018 6.84467 7.14319 6.58166C7.40619 6.31865 7.76291 6.1709 8.13486 6.1709H10.6592" stroke="#0A58EB" stroke-width="1.12195" stroke-linecap="round" stroke-linejoin="round"/>
</svg>
