<svg width="32" height="32" viewBox="0 0 32 32" fill="none" xmlns="http://www.w3.org/2000/svg">
<path d="M0 16C0 7.16344 7.16344 0 16 0C24.8366 0 32 7.16344 32 16C32 24.8366 24.8366 32 16 32C7.16344 32 0 24.8366 0 16Z" fill="#F1F5F9"/>
<path d="M10.7506 16.0003L12.5006 16.0003L12.5006 21.2503C12.5002 21.3531 12.527 21.4541 12.5782 21.5433C12.6294 21.6324 12.7033 21.7064 12.7923 21.7578C12.881 21.809 12.9816 21.8359 13.084 21.8359C13.1864 21.8359 13.287 21.809 13.3756 21.7578L15.1256 20.7545L16.8756 21.7578C16.9643 21.809 17.0649 21.8359 17.1673 21.8359C17.2697 21.8359 17.3703 21.809 17.459 21.7578L19.209 20.7545L20.959 21.7578C21.0477 21.809 21.1483 21.8359 21.2506 21.8359C21.353 21.8359 21.4536 21.809 21.5423 21.7578C21.6313 21.7064 21.7052 21.6324 21.7564 21.5433C21.8076 21.4541 21.8344 21.3531 21.834 21.2503L21.834 11.917C21.834 11.4528 21.6496 11.0077 21.3214 10.6795C20.9932 10.3513 20.5481 10.167 20.084 10.167L11.9173 10.167C11.4532 10.167 11.0081 10.3513 10.6799 10.6795C10.3517 11.0077 10.1673 11.4528 10.1673 11.917L10.1673 15.417C10.1673 15.5717 10.2288 15.72 10.3382 15.8294C10.4476 15.9388 10.5959 16.0003 10.7506 16.0003ZM20.084 11.3336C20.2387 11.3336 20.3871 11.3951 20.4965 11.5045C20.6059 11.6139 20.6673 11.7622 20.6673 11.917L20.6673 20.2411L19.5006 19.5761C19.4106 19.5291 19.3106 19.5045 19.209 19.5045C19.1074 19.5045 19.0073 19.5291 18.9173 19.5761L17.1673 20.5795L15.4173 19.5761C15.3273 19.5291 15.2272 19.5045 15.1256 19.5045C15.0241 19.5045 14.924 19.5291 14.834 19.5761L13.6673 20.2411L13.6673 11.917C13.6657 11.718 13.6302 11.5207 13.5623 11.3336L20.084 11.3336ZM11.334 11.917C11.334 11.7622 11.3954 11.6139 11.5048 11.5045C11.6142 11.3951 11.7626 11.3336 11.9173 11.3336C12.072 11.3336 12.2204 11.3951 12.3298 11.5045C12.4392 11.6139 12.5006 11.7622 12.5006 11.917L12.5006 14.8336L11.334 14.8336L11.334 11.917Z" fill="#94A3B8"/>
</svg>
