<svg width="24" height="24" viewBox="0 0 24 24" fill="none" xmlns="http://www.w3.org/2000/svg">
<path d="M6.98918 13.878L6.36263 16.217L4.07258 16.2654C3.3882 14.996 3 13.5437 3 12.0003C3 10.5079 3.36295 9.10055 4.00631 7.86133H4.0068L6.04559 8.23511L6.9387 10.2617C6.75177 10.8066 6.64989 11.3916 6.64989 12.0003C6.64996 12.661 6.76963 13.294 6.98918 13.878Z" fill="#FBBB00"/>
<path d="M20.8422 10.3184C20.9455 10.8628 20.9994 11.425 20.9994 11.9997C20.9994 12.644 20.9317 13.2725 20.8026 13.8788C20.3645 15.9419 19.2197 17.7434 17.6338 19.0182L17.6333 19.0177L15.0654 18.8867L14.7019 16.6179C15.7542 16.0007 16.5766 15.035 17.0098 13.8788H12.1973V10.3184H17.08H20.8422Z" fill="#518EF8"/>
<path d="M17.6336 19.0183L17.6341 19.0188C16.0917 20.2585 14.1325 21.0003 11.9997 21.0003C8.57227 21.0003 5.59239 19.0846 4.07227 16.2654L6.98886 13.8779C7.74891 15.9064 9.70567 17.3503 11.9997 17.3503C12.9857 17.3503 13.9095 17.0838 14.7021 16.6185L17.6336 19.0183Z" fill="#28B446"/>
<path d="M17.7442 5.07197L14.8286 7.45894C14.0082 6.94615 13.0385 6.64992 11.9995 6.64992C9.65361 6.64992 7.66025 8.16013 6.93828 10.2613L4.00635 7.86098H4.00586C5.50373 4.97307 8.52119 3 11.9995 3C14.1833 3 16.1855 3.77787 17.7442 5.07197Z" fill="#F14336"/>
</svg>
