<svg width="32" height="32" viewBox="0 0 32 32" fill="none" xmlns="http://www.w3.org/2000/svg">
<path d="M0 16C0 7.16344 7.16344 0 16 0C24.8366 0 32 7.16344 32 16C32 24.8366 24.8366 32 16 32C7.16344 32 0 24.8366 0 16Z" fill="#F1F5F9"/>
<path d="M22.6673 15.9997H21.014C20.7226 15.9991 20.4391 16.0939 20.2067 16.2697C19.9744 16.4454 19.806 16.6925 19.7273 16.973L18.1607 22.5463C18.1506 22.581 18.1295 22.6114 18.1007 22.633C18.0718 22.6546 18.0367 22.6663 18.0007 22.6663C17.9646 22.6663 17.9295 22.6546 17.9007 22.633C17.8718 22.6114 17.8507 22.581 17.8407 22.5463L14.1607 9.45301C14.1506 9.41839 14.1295 9.38798 14.1007 9.36634C14.0718 9.3447 14.0367 9.33301 14.0007 9.33301C13.9646 9.33301 13.9295 9.3447 13.9007 9.36634C13.8718 9.38798 13.8507 9.41839 13.8407 9.45301L12.274 15.0263C12.1956 15.3058 12.0282 15.552 11.7972 15.7277C11.5662 15.9033 11.2842 15.9988 10.994 15.9997H9.33398" stroke="#94A3B8" stroke-width="1.33333" stroke-linecap="round" stroke-linejoin="round"/>
</svg>
