<svg width="71" height="71" viewBox="0 0 71 71" fill="none" xmlns="http://www.w3.org/2000/svg">
<path d="M0 35.2082C0 15.7632 15.7632 0 35.2082 0C54.6531 0 70.4164 15.7632 70.4164 35.2082C70.4164 54.6531 54.6531 70.4164 35.2082 70.4164C15.7632 70.4164 0 54.6531 0 35.2082Z" fill="#00C950" fill-opacity="0.1"/>
<path d="M35.2072 49.8782C43.3093 49.8782 49.8773 43.3102 49.8773 35.2082C49.8773 27.1061 43.3093 20.5381 35.2072 20.5381C27.1051 20.5381 20.5371 27.1061 20.5371 35.2082C20.5371 43.3102 27.1051 49.8782 35.2072 49.8782Z" stroke="#00C950" stroke-width="2.93402" stroke-linecap="round" stroke-linejoin="round"/>
<path d="M30.8066 35.2075L33.7407 38.1415L39.6087 32.2734" stroke="#00C950" stroke-width="2.93402" stroke-linecap="round" stroke-linejoin="round"/>
</svg>
