<svg width="6" height="10" viewBox="0 0 6 10" fill="none" xmlns="http://www.w3.org/2000/svg">
<mask id="path-1-inside-1_510_55496" fill="white">
<path d="M5.66883 9.16596C5.66883 9.3218 5.5425 9.44813 5.38667 9.44813L3.7793 9.44813L3.7793 7.55859L5.66883 7.55859L5.66883 9.16596Z"/>
</mask>
<path d="M5.66883 9.16596C5.66883 9.3218 5.5425 9.44813 5.38667 9.44813L3.7793 9.44813L3.7793 7.55859L5.66883 7.55859L5.66883 9.16596Z" fill="#252525" stroke="#E5E5E5" stroke-width="0.65556" mask="url(#path-1-inside-1_510_55496)"/>
<mask id="path-2-inside-2_510_55496" fill="white">
<path d="M3.78016 7.55751L2.17279 7.55751C2.01696 7.5575 1.89063 7.43117 1.89063 7.27534L1.89063 5.66797L3.78016 5.66797L3.78016 7.55751Z"/>
</mask>
<path d="M3.78016 7.55751L2.17279 7.55751C2.01696 7.5575 1.89063 7.43117 1.89063 7.27534L1.89063 5.66797L3.78016 5.66797L3.78016 7.55751Z" fill="#252525" stroke="#E5E5E5" stroke-width="0.65556" mask="url(#path-2-inside-2_510_55496)"/>
<mask id="path-3-inside-3_510_55496" fill="white">
<path d="M1.88954 5.66883L0.282167 5.66883C0.126331 5.66883 1.10442e-08 5.5425 2.46678e-08 5.38667L1.65188e-07 3.7793L1.88954 3.7793L1.88954 5.66883Z"/>
</mask>
<path d="M1.88954 5.66883L0.282167 5.66883C0.126331 5.66883 1.10442e-08 5.5425 2.46678e-08 5.38667L1.65188e-07 3.7793L1.88954 3.7793L1.88954 5.66883Z" fill="#252525" stroke="#E5E5E5" stroke-width="0.65556" mask="url(#path-3-inside-3_510_55496)"/>
<mask id="path-4-inside-4_510_55496" fill="white">
<path d="M3.78016 3.49799C3.78016 3.65383 3.65383 3.78016 3.49799 3.78016L1.89062 3.78016L1.89063 1.89063L3.78016 1.89063L3.78016 3.49799Z"/>
</mask>
<path d="M3.78016 3.49799C3.78016 3.65383 3.65383 3.78016 3.49799 3.78016L1.89062 3.78016L1.89063 1.89063L3.78016 1.89063L3.78016 3.49799Z" fill="#252525" stroke="#E5E5E5" stroke-width="0.65556" mask="url(#path-4-inside-4_510_55496)"/>
<mask id="path-5-inside-5_510_55496" fill="white">
<path d="M5.66883 1.88954L3.7793 1.88954L3.7793 8.07232e-07L5.38667 9.47753e-07C5.5425 9.61377e-07 5.66883 0.126331 5.66883 0.282168L5.66883 1.88954Z"/>
</mask>
<path d="M5.66883 1.88954L3.7793 1.88954L3.7793 8.07232e-07L5.38667 9.47753e-07C5.5425 9.61377e-07 5.66883 0.126331 5.66883 0.282168L5.66883 1.88954Z" fill="#252525" stroke="#E5E5E5" stroke-width="0.65556" mask="url(#path-5-inside-5_510_55496)"/>
</svg>
