<svg width="39" height="41" viewBox="0 0 39 41" fill="none" xmlns="http://www.w3.org/2000/svg">
<rect width="39" height="41" rx="10" fill="white"/>
<g clip-path="url(#clip0_1314_17773)">
<path d="M22.25 17.25H24.5C24.9925 17.25 25.4801 17.347 25.9351 17.5355C26.39 17.7239 26.8034 18.0001 27.1517 18.3483C27.4999 18.6966 27.7761 19.11 27.9645 19.5649C28.153 20.0199 28.25 20.5075 28.25 21C28.25 21.4925 28.153 21.9801 27.9645 22.4351C27.7761 22.89 27.4999 23.3034 27.1517 23.6517C26.8034 23.9999 26.39 24.2761 25.9351 24.4645C25.4801 24.653 24.9925 24.75 24.5 24.75H22.25M17.75 24.75H15.5C15.0075 24.75 14.5199 24.653 14.0649 24.4645C13.61 24.2761 13.1966 23.9999 12.8483 23.6517C12.1451 22.9484 11.75 21.9946 11.75 21C11.75 20.0054 12.1451 19.0516 12.8483 18.3483C13.5516 17.6451 14.5054 17.25 15.5 17.25H17.75" stroke="black" stroke-width="2" stroke-linecap="round" stroke-linejoin="round"/>
<path d="M17 21H23" stroke="black" stroke-width="2" stroke-linecap="round" stroke-linejoin="round"/>
</g>
<defs>
<clipPath id="clip0_1314_17773">
<rect width="18" height="18" fill="white" transform="translate(11 12)"/>
</clipPath>
</defs>
</svg>
