<svg width="20" height="20" viewBox="0 0 20 20" fill="none" xmlns="http://www.w3.org/2000/svg">
<path d="M7.50033 14.1663H5.83366C4.72859 14.1663 3.66878 13.7274 2.88738 12.946C2.10598 12.1646 1.66699 11.1047 1.66699 9.99967C1.66699 8.89461 2.10598 7.8348 2.88738 7.0534C3.66878 6.27199 4.72859 5.83301 5.83366 5.83301H7.50033" stroke="#64748B" stroke-width="1.66667" stroke-linecap="round" stroke-linejoin="round"/>
<path d="M12.5 5.83301H14.1667C15.2717 5.83301 16.3315 6.27199 17.1129 7.0534C17.8943 7.8348 18.3333 8.89461 18.3333 9.99967C18.3333 11.1047 17.8943 12.1646 17.1129 12.946C16.3315 13.7274 15.2717 14.1663 14.1667 14.1663H12.5" stroke="#64748B" stroke-width="1.66667" stroke-linecap="round" stroke-linejoin="round"/>
<path d="M6.66699 10H13.3337" stroke="#64748B" stroke-width="1.66667" stroke-linecap="round" stroke-linejoin="round"/>
</svg>
