<svg width="17" height="17" viewBox="0 0 17 17" fill="none" xmlns="http://www.w3.org/2000/svg">
<path d="M6.72917 7.08333C8.09838 7.08333 9.20833 5.97338 9.20833 4.60417C9.20833 3.23496 8.09838 2.125 6.72917 2.125C5.35996 2.125 4.25 3.23496 4.25 4.60417C4.25 5.97338 5.35996 7.08333 6.72917 7.08333Z" fill="white" stroke="#0A58EB" stroke-width="1.41667" stroke-linecap="round" stroke-linejoin="round"/>
<path d="M11.5488 2.47949C12.2688 2.91331 12.7503 3.70268 12.7503 4.60449C12.7503 5.50631 12.2688 6.29567 11.5488 6.72949" stroke="#0A58EB" stroke-width="1.41667" stroke-linecap="round" stroke-linejoin="round"/>
<path d="M1.41602 14.4503V14.8753H12.041V14.4503C12.041 12.8635 12.041 12.0701 11.7322 11.464C11.4606 10.9309 11.0271 10.4974 10.494 10.2258C9.88789 9.91699 9.09449 9.91699 7.50768 9.91699H5.94935C4.36254 9.91699 3.56914 9.91699 2.96304 10.2258C2.42992 10.4974 1.99647 10.9309 1.72483 11.464C1.41602 12.0701 1.41602 12.8635 1.41602 14.4503Z" fill="white" stroke="#0A58EB" stroke-width="1.41667" stroke-linecap="round" stroke-linejoin="round"/>
<path d="M15.5841 14.8751V14.4501C15.5841 12.8633 15.5841 12.0699 15.2753 11.4638C15.0037 10.9307 14.5702 10.4972 14.0371 10.2256" stroke="#0A58EB" stroke-width="1.41667" stroke-linecap="round" stroke-linejoin="round"/>
</svg>
