<svg width="47" height="49" viewBox="0 0 47 49" fill="none" xmlns="http://www.w3.org/2000/svg">
<rect width="47" height="49" rx="10" fill="#0A58EB"/>
<path d="M28 36C29.6569 36 31 34.6569 31 33C31 31.3431 29.6569 30 28 30C26.3431 30 25 31.3431 25 33C25 34.6569 26.3431 36 28 36Z" stroke="white" stroke-width="2" stroke-linecap="round" stroke-linejoin="round"/>
<path d="M16 29C17.6569 29 19 27.6569 19 26C19 24.3431 17.6569 23 16 23C14.3431 23 13 24.3431 13 26C13 27.6569 14.3431 29 16 29Z" stroke="white" stroke-width="2" stroke-linecap="round" stroke-linejoin="round"/>
<path d="M18.5898 27.5098L25.4198 31.4898" stroke="white" stroke-width="2" stroke-linecap="round" stroke-linejoin="round"/>
<path d="M28 22C29.6569 22 31 20.6569 31 19C31 17.3431 29.6569 16 28 16C26.3431 16 25 17.3431 25 19C25 20.6569 26.3431 22 28 22Z" stroke="white" stroke-width="2" stroke-linecap="round" stroke-linejoin="round"/>
<path d="M25.4098 20.5098L18.5898 24.4898" stroke="white" stroke-width="2" stroke-linecap="round" stroke-linejoin="round"/>
</svg>
