<svg width="32" height="32" viewBox="0 0 32 32" fill="none" xmlns="http://www.w3.org/2000/svg">
<path d="M0 16C0 7.16344 7.16344 0 16 0C24.8366 0 32 7.16344 32 16C32 24.8366 24.8366 32 16 32C7.16344 32 0 24.8366 0 16Z" fill="#F1F5F9"/>
<path d="M16.0004 9L19.6506 11.6427L23.2918 14.2975L21.9065 18.5857L20.5068 22.8691L16.0004 22.8767L11.4941 22.8691L10.0944 18.5857L8.70898 14.2975L12.3503 11.6427L16.0004 9Z" stroke="#94A3B8" stroke-width="1.16667" stroke-linejoin="round"/>
<path d="M16.0004 9L16.0049 16.6605L23.2918 14.2975L16.0077 16.669L20.5068 22.8691L16.0004 16.6743L11.4941 22.8691L15.9931 16.669L8.70898 14.2975L15.9959 16.6605L16.0004 9Z" stroke="#94A3B8" stroke-width="1.16667" stroke-linejoin="round"/>
<path d="M16.0001 12.333L18.0633 13.8267L20.1214 15.3273L19.3383 17.751L18.5472 20.1721L16.0001 20.1763L13.4531 20.1721L12.6619 17.751L11.8789 15.3273L13.937 13.8267L16.0001 12.333Z" stroke="#94A3B8" stroke-width="1.16667" stroke-linejoin="round"/>
</svg>
