<svg width="90" height="17" viewBox="0 0 90 17" fill="none" xmlns="http://www.w3.org/2000/svg">
<path d="M30.4659 9.20206H33.8561C34.0866 9.20206 34.3076 9.29362 34.4706 9.45659C34.6336 9.61956 34.7251 9.84059 34.7251 10.0711C34.7251 10.3015 34.6336 10.5226 34.4706 10.6855C34.3076 10.8485 34.0866 10.9401 33.8561 10.9401H29.7675C29.7039 10.9403 29.6426 10.9634 29.5948 11.0052L28.3619 12.0698C28.3202 12.1053 28.2904 12.1527 28.2764 12.2057C28.2625 12.2587 28.2651 12.3146 28.2839 12.3661C28.3027 12.4175 28.3368 12.462 28.3816 12.4935C28.4264 12.525 28.4798 12.542 28.5346 12.5423H33.6508C33.7171 12.5423 33.7779 12.551 33.8442 12.551C34.4788 12.5464 35.0872 12.2977 35.5434 11.8566C35.9996 11.4154 36.2685 10.8156 36.2944 10.1815C36.3202 9.54741 36.101 8.9277 35.6822 8.45088C35.2635 7.97406 34.6772 7.67671 34.0451 7.62049H30.3964C30.1659 7.62049 29.9449 7.52893 29.7819 7.36596C29.619 7.203 29.5274 6.98196 29.5274 6.75149C29.5274 6.52102 29.619 6.29998 29.7819 6.13701C29.9449 5.97404 30.1659 5.88249 30.3964 5.88249H34.4764C34.543 5.88221 34.6071 5.85747 34.6567 5.81297L35.8038 4.74845C35.8432 4.71159 35.8708 4.66375 35.8828 4.61109C35.8949 4.55844 35.8909 4.50338 35.8714 4.45301C35.8519 4.40264 35.8177 4.35927 35.7733 4.32848C35.729 4.2977 35.6764 4.28091 35.6224 4.28027H30.4008C29.7547 4.29382 29.1398 4.55996 28.6877 5.02162C28.2356 5.48328 27.9824 6.10371 27.9824 6.74986C27.9824 7.39601 28.2356 8.01643 28.6877 8.47809C29.1398 8.93975 29.7547 9.2059 30.4008 9.21944L30.4659 9.20206Z" fill="black"/>
<path d="M50.1969 4.25923C50.1615 4.25937 50.1265 4.26652 50.0938 4.28027C50.0612 4.29402 50.0316 4.3141 50.0067 4.33935C49.9819 4.36459 49.9623 4.39451 49.9491 4.42737C49.9359 4.46023 49.9293 4.49537 49.9297 4.53079V12.2714C49.9294 12.3428 49.9573 12.4113 50.0074 12.4622C50.0574 12.5131 50.1256 12.5421 50.1969 12.543H56.4016C56.4385 12.5424 56.4749 12.5344 56.5087 12.5194C56.5425 12.5045 56.5729 12.483 56.5982 12.4561L57.3749 11.6229C57.4111 11.5845 57.4354 11.5363 57.4446 11.4843C57.4538 11.4322 57.4476 11.3786 57.4266 11.3301C57.4057 11.2816 57.3711 11.2402 57.3269 11.2112C57.2828 11.1822 57.2311 11.1667 57.1782 11.1667H51.7622C51.7268 11.1665 51.6918 11.1594 51.6591 11.1456C51.6265 11.1319 51.5969 11.1118 51.572 11.0866C51.5472 11.0613 51.5276 11.0314 51.5144 10.9985C51.5011 10.9657 51.4946 10.9305 51.495 10.8951V4.52644C51.4953 4.45508 51.4674 4.3865 51.4173 4.33564C51.3673 4.28477 51.2991 4.25574 51.2278 4.25488H50.1969V4.25923Z" fill="black"/>
<path fill-rule="evenodd" clip-rule="evenodd" d="M40.2585 4.25977C39.8753 4.27822 39.5126 4.43876 39.2413 4.71008C38.97 4.98139 38.8095 5.34403 38.791 5.72729V10.9326V10.9988C38.7907 11.3941 38.9433 11.7741 39.2168 12.0594C39.4903 12.3447 39.8636 12.5131 40.2585 12.5294H45.8875C46.2817 12.511 46.6538 12.3417 46.9268 12.0566C47.1997 11.7716 47.3527 11.3925 47.3539 10.9978V10.9315V5.73055C47.3382 5.34739 47.1793 4.98408 46.9085 4.71252C46.6378 4.44096 46.2749 4.28094 45.8918 4.26411H40.2585V4.25977ZM41.31 5.73055C41.0692 5.74157 40.8414 5.84275 40.6717 6.01401C40.5021 6.18526 40.4031 6.41405 40.3943 6.65495V9.92998V9.97126C40.3932 10.2192 40.4878 10.458 40.6584 10.6379C40.829 10.8178 41.0624 10.9249 41.31 10.9369H44.8392C45.087 10.9249 45.3205 10.8178 45.4913 10.6379C45.6621 10.4581 45.7569 10.2193 45.756 9.97126V9.92998V6.65495C45.7463 6.4142 45.6468 6.18582 45.4771 6.01475C45.3075 5.84367 45.0799 5.74229 44.8392 5.73055H41.31Z" fill="black"/>
<path fill-rule="evenodd" clip-rule="evenodd" d="M66.3934 12.2715C66.3931 12.3428 66.421 12.4114 66.471 12.4623C66.5211 12.5132 66.5892 12.5422 66.6606 12.543H67.7121C67.7475 12.5429 67.7825 12.5358 67.8152 12.522C67.8478 12.5083 67.8774 12.4882 67.9022 12.4629C67.9271 12.4377 67.9467 12.4078 67.9599 12.3749C67.9731 12.3421 67.9797 12.3069 67.9793 12.2715V5.86262V5.79744C67.9805 5.40549 67.8304 5.02819 67.5602 4.74425C67.2901 4.4603 66.9207 4.29163 66.5291 4.27344H61.0599C60.8589 4.27343 60.6599 4.31326 60.4744 4.39063C60.2889 4.46801 60.1206 4.58139 59.9791 4.72422C59.8377 4.86705 59.726 5.03649 59.6505 5.22276C59.575 5.40902 59.5371 5.60841 59.5391 5.80939V5.87565V12.2845C59.5388 12.3559 59.5668 12.4245 59.6168 12.4753C59.6669 12.5262 59.735 12.5552 59.8064 12.5561H60.8578C60.8933 12.5561 60.9284 12.549 60.9611 12.5353C60.9938 12.5216 61.0235 12.5016 61.0483 12.4763C61.0732 12.451 61.0928 12.421 61.106 12.3881C61.1191 12.3552 61.1256 12.32 61.1251 12.2845V9.60909C61.1248 9.53773 61.1527 9.46914 61.2027 9.41828C61.2528 9.36741 61.3209 9.33839 61.3923 9.33753H66.1381C66.1735 9.33767 66.2086 9.34482 66.2412 9.35857C66.2738 9.37232 66.3034 9.3924 66.3283 9.41765C66.3531 9.44289 66.3727 9.47281 66.3859 9.50566C66.3992 9.53852 66.4057 9.57367 66.4053 9.60909V12.2715H66.3934ZM61.1218 7.85806V6.53175C61.1204 6.28504 61.2169 6.04785 61.3902 5.87228C61.5636 5.69671 61.7995 5.59713 62.0462 5.5954H65.4733C65.72 5.59713 65.956 5.69671 66.1293 5.87228C66.3026 6.04785 66.3992 6.28504 66.3977 6.53175V7.85806C66.398 7.92942 66.3701 7.998 66.32 8.04887C66.27 8.09974 66.2019 8.12876 66.1305 8.12962H61.389C61.3536 8.12962 61.3184 8.12257 61.2857 8.10887C61.253 8.09517 61.2234 8.0751 61.1985 8.04982C61.1736 8.02455 61.154 7.99458 61.1409 7.96165C61.1277 7.92873 61.1212 7.89351 61.1218 7.85806Z" fill="black"/>
<path fill-rule="evenodd" clip-rule="evenodd" d="M88.6007 12.5444C88.5652 12.5444 88.5301 12.5373 88.4974 12.5236C88.4647 12.5099 88.4351 12.4898 88.4102 12.4646C88.3853 12.4393 88.3657 12.4093 88.3526 12.3764C88.3394 12.3435 88.3329 12.3083 88.3335 12.2728V9.60606C88.3338 9.5348 88.3058 9.46633 88.2557 9.41564C88.2057 9.36494 88.1375 9.33616 88.0663 9.33558H83.2716C83.2362 9.33543 83.2011 9.34235 83.1684 9.35593C83.1357 9.36951 83.106 9.38948 83.0811 9.41467C83.0562 9.43986 83.0366 9.46976 83.0235 9.50263C83.0103 9.53549 83.0038 9.57065 83.0044 9.60606V12.2728C83.0046 12.3442 82.9767 12.4127 82.9267 12.4636C82.8766 12.5145 82.8085 12.5435 82.7371 12.5444H81.6813C81.6459 12.5442 81.6108 12.5371 81.5782 12.5233C81.5456 12.5096 81.516 12.4895 81.4911 12.4642C81.4663 12.439 81.4467 12.4091 81.4335 12.3762C81.4202 12.3434 81.4137 12.3082 81.4141 12.2728V5.86393V5.79876C81.4138 5.39177 81.575 5.00131 81.8624 4.71312C82.1498 4.42494 82.5398 4.26258 82.9468 4.26172H88.4725C88.8667 4.28093 89.2384 4.45081 89.5109 4.73624C89.7834 5.02168 89.9359 5.40088 89.9368 5.7955V5.86068V12.2695C89.9371 12.3409 89.9092 12.4095 89.8591 12.4604C89.8091 12.5112 89.7409 12.5402 89.6696 12.5411H88.6007V12.5444ZM83.0044 6.53306V7.85937C83.0041 7.89475 83.0107 7.92984 83.024 7.96263C83.0373 7.99542 83.0569 8.02528 83.0817 8.0505C83.1065 8.07571 83.1361 8.0958 83.1686 8.1096C83.2012 8.1234 83.2362 8.13065 83.2716 8.13093H88.0663C88.1017 8.13079 88.1367 8.12364 88.1694 8.10989C88.202 8.09614 88.2316 8.07606 88.2564 8.05082C88.2813 8.02557 88.3009 7.99565 88.3141 7.9628C88.3273 7.92994 88.3339 7.89479 88.3335 7.85937V6.53306C88.3338 6.28521 88.2357 6.04737 88.0607 5.8718C87.8858 5.69623 87.6483 5.59729 87.4004 5.59672H83.9364C83.8136 5.59672 83.692 5.62096 83.5787 5.66807C83.4653 5.71518 83.3624 5.78422 83.2758 5.87123C83.1892 5.95823 83.1206 6.06149 83.074 6.17507C83.0275 6.28865 83.0038 6.41031 83.0044 6.53306Z" fill="black"/>
<path d="M71.9378 4.25979C71.9764 4.2593 72.0147 4.26755 72.0497 4.28391C72.0846 4.30028 72.1155 4.32433 72.1399 4.35429L76.8564 9.97997C76.892 10.0215 76.9395 10.0511 76.9925 10.0646C77.0455 10.0782 77.1014 10.0751 77.1526 10.0557C77.2037 10.0364 77.2477 10.0017 77.2785 9.95647C77.3092 9.91124 77.3253 9.85762 77.3245 9.80292V4.53135C77.3242 4.45999 77.3521 4.3914 77.4022 4.34054C77.4523 4.28967 77.5204 4.26065 77.5917 4.25979H78.6389C78.6743 4.25978 78.7095 4.26683 78.7422 4.28053C78.7749 4.29423 78.8045 4.31431 78.8294 4.33958C78.8543 4.36486 78.8739 4.39483 78.887 4.42776C78.9002 4.46068 78.9067 4.49589 78.9061 4.53135V12.272C78.9064 12.3433 78.8785 12.4119 78.8284 12.4628C78.7784 12.5136 78.7102 12.5427 78.6389 12.5435H77.3354C77.3332 12.5433 77.3311 12.5423 77.3295 12.5407C77.3279 12.5391 77.3269 12.537 77.3267 12.5348C77.3267 12.5348 77.3267 12.5348 77.3267 12.5272L72.5276 6.94282C72.4918 6.90189 72.4443 6.87289 72.3915 6.8597C72.3387 6.84651 72.2831 6.84975 72.2322 6.86901C72.1813 6.88826 72.1374 6.9226 72.1066 6.96743C72.0757 7.01226 72.0593 7.06545 72.0595 7.11988V12.2763C72.0598 12.3477 72.0318 12.4162 71.9818 12.4671C71.9317 12.518 71.8636 12.547 71.7923 12.5479H70.7321C70.6967 12.5477 70.6616 12.5406 70.629 12.5268C70.5963 12.5131 70.5667 12.493 70.5419 12.4677C70.5171 12.4425 70.4975 12.4126 70.4842 12.3797C70.471 12.3469 70.4644 12.3117 70.4649 12.2763V4.53135C70.4646 4.45999 70.4925 4.3914 70.5425 4.34054C70.5926 4.28967 70.6607 4.26065 70.7321 4.25979H71.9378Z" fill="black"/>
<path d="M3.48235 12.8264C3.54702 12.7615 3.62387 12.7099 3.70849 12.6747C3.79311 12.6394 3.88385 12.6212 3.97551 12.6211H21.0883C21.1575 12.6206 21.2253 12.6407 21.2829 12.6789C21.3406 12.7172 21.3856 12.7717 21.4121 12.8357C21.4386 12.8996 21.4454 12.97 21.4316 13.0378C21.4178 13.1056 21.3842 13.1678 21.3348 13.2164L17.9534 16.5979C17.8887 16.6629 17.8119 16.7145 17.7273 16.7498C17.6426 16.785 17.5519 16.8031 17.4602 16.8032H0.347436C0.278744 16.8025 0.211768 16.7816 0.154916 16.7431C0.0980643 16.7045 0.053869 16.65 0.0278769 16.5864C0.00188481 16.5228 -0.00474612 16.453 0.00881749 16.3856C0.0223811 16.3183 0.0555346 16.2565 0.104116 16.2079L3.48235 12.8264Z" fill="black"/>
<path d="M3.48148 0.205313C3.54615 0.140362 3.623 0.0887977 3.70762 0.0535703C3.79224 0.0183429 3.88298 0.000142281 3.97464 1.03976e-05H21.0874C21.1566 -0.000524787 21.2244 0.0196114 21.2821 0.0578367C21.3398 0.096062 21.3847 0.150638 21.4112 0.214575C21.4377 0.278512 21.4445 0.348898 21.4307 0.416722C21.417 0.484545 21.3833 0.546718 21.334 0.595276L17.9525 3.97242C17.8879 4.03762 17.8111 4.08941 17.7265 4.12483C17.6419 4.16025 17.5511 4.17859 17.4593 4.17881H0.346566C0.27765 4.17839 0.210403 4.15756 0.15332 4.11894C0.0962358 4.08033 0.0518748 4.02567 0.0258392 3.96186C-0.000196261 3.89805 -0.00673865 3.82795 0.00703841 3.76043C0.0208155 3.6929 0.0542943 3.63097 0.103246 3.58246L3.48148 0.205313Z" fill="black"/>
<path d="M17.9534 6.47386C17.8887 6.40881 17.8119 6.35718 17.7273 6.32195C17.6426 6.28671 17.5519 6.26857 17.4602 6.26855H0.347436C0.278744 6.26919 0.211768 6.29009 0.154916 6.32865C0.0980643 6.36721 0.053869 6.42171 0.0278769 6.48529C0.00188481 6.54888 -0.00474611 6.61873 0.00881749 6.68607C0.0223811 6.75342 0.0555346 6.81525 0.104116 6.86382L3.48235 10.2475C3.54702 10.3124 3.62387 10.364 3.70849 10.3992C3.79311 10.4345 3.88385 10.4527 3.97551 10.4528H21.0883C21.1575 10.453 21.2252 10.4326 21.2827 10.3943C21.3403 10.3559 21.3852 10.3013 21.4116 10.2373C21.4381 10.1734 21.4449 10.103 21.4312 10.0352C21.4175 9.96737 21.384 9.90514 21.3348 9.85644L17.9534 6.47386Z" fill="black"/>
</svg>
