<svg width="20" height="20" viewBox="0 0 20 20" fill="none" xmlns="http://www.w3.org/2000/svg">
<path d="M12.5005 18.3327V14.9993C12.6164 13.9554 12.3171 12.9078 11.6671 12.0827C14.1671 12.0827 16.6671 10.416 16.6671 7.49935C16.7338 6.45768 16.4421 5.43268 15.8338 4.58268C16.0671 3.62435 16.0671 2.62435 15.8338 1.66602C15.8338 1.66602 15.0005 1.66602 13.3338 2.91602C11.1338 2.49935 8.86715 2.49935 6.66715 2.91602C5.00048 1.66602 4.16715 1.66602 4.16715 1.66602C3.91715 2.62435 3.91715 3.62435 4.16715 4.58268C3.56037 5.42925 3.26587 6.46 3.33381 7.49935C3.33381 10.416 5.83381 12.0827 8.33381 12.0827C8.00881 12.491 7.76715 12.9577 7.62548 13.4577C7.48381 13.9577 7.44215 14.4827 7.50048 14.9993V18.3327" stroke="white" stroke-width="1.66667" stroke-linecap="round" stroke-linejoin="round"/>
<path d="M7.50033 15.0007C3.74199 16.6673 3.33366 13.334 1.66699 13.334" stroke="white" stroke-width="1.66667" stroke-linecap="round" stroke-linejoin="round"/>
</svg>
