<svg width="26" height="26" viewBox="0 0 26 26" fill="none" xmlns="http://www.w3.org/2000/svg">
<path d="M22.7493 6.49935H18.416V5.41602C18.416 4.55406 18.0736 3.72741 17.4641 3.11792C16.8546 2.50843 16.028 2.16602 15.166 2.16602H10.8327C9.97073 2.16602 9.14408 2.50843 8.53458 3.11792C7.92509 3.72741 7.58268 4.55406 7.58268 5.41602V6.49935H3.24935C2.96203 6.49935 2.68648 6.61349 2.48332 6.81665C2.28015 7.01981 2.16602 7.29536 2.16602 7.58268V11.916C2.16845 12.3703 2.26613 12.8191 2.45272 13.2334C2.63932 13.6476 2.9107 14.0181 3.24935 14.321V20.5827C3.24935 21.4446 3.59176 22.2713 4.20125 22.8808C4.81075 23.4903 5.6374 23.8327 6.49935 23.8327H19.4993C20.3613 23.8327 21.188 23.4903 21.7974 22.8808C22.4069 22.2713 22.7493 21.4446 22.7493 20.5827V14.321C23.088 14.0181 23.3594 13.6476 23.546 13.2334C23.7326 12.8191 23.8302 12.3703 23.8327 11.916V7.58268C23.8327 7.29536 23.7185 7.01981 23.5154 6.81665C23.3122 6.61349 23.0367 6.49935 22.7493 6.49935ZM9.74935 5.41602C9.74935 5.1287 9.86349 4.85315 10.0666 4.64998C10.2698 4.44682 10.5454 4.33268 10.8327 4.33268H15.166C15.4533 4.33268 15.7289 4.44682 15.932 4.64998C16.1352 4.85315 16.2493 5.1287 16.2493 5.41602V6.49935H9.74935V5.41602ZM20.5827 20.5827C20.5827 20.87 20.4685 21.1455 20.2654 21.3487C20.0622 21.5519 19.7867 21.666 19.4993 21.666H6.49935C6.21203 21.666 5.93648 21.5519 5.73332 21.3487C5.53015 21.1455 5.41602 20.87 5.41602 20.5827V15.166H7.58268V16.2493C7.58268 16.5367 7.69682 16.8122 7.89998 17.0154C8.10315 17.2185 8.3787 17.3327 8.66602 17.3327C8.95333 17.3327 9.22888 17.2185 9.43205 17.0154C9.63521 16.8122 9.74935 16.5367 9.74935 16.2493V15.166H16.2493V16.2493C16.2493 16.5367 16.3635 16.8122 16.5666 17.0154C16.7698 17.2185 17.0454 17.3327 17.3327 17.3327C17.62 17.3327 17.8955 17.2185 18.0987 17.0154C18.3019 16.8122 18.416 16.5367 18.416 16.2493V15.166H20.5827V20.5827ZM21.666 11.916C21.666 12.2033 21.5519 12.4789 21.3487 12.682C21.1455 12.8852 20.87 12.9993 20.5827 12.9993H18.416V11.916C18.416 11.6287 18.3019 11.3531 18.0987 11.15C17.8955 10.9468 17.62 10.8327 17.3327 10.8327C17.0454 10.8327 16.7698 10.9468 16.5666 11.15C16.3635 11.3531 16.2493 11.6287 16.2493 11.916V12.9993H9.74935V11.916C9.74935 11.6287 9.63521 11.3531 9.43205 11.15C9.22888 10.9468 8.95333 10.8327 8.66602 10.8327C8.3787 10.8327 8.10315 10.9468 7.89998 11.15C7.69682 11.3531 7.58268 11.6287 7.58268 11.916V12.9993H5.41602C5.1287 12.9993 4.85315 12.8852 4.64998 12.682C4.44682 12.4789 4.33268 12.2033 4.33268 11.916V8.66602H21.666V11.916Z" fill="#0A58EB"/>
</svg>
