<svg width="24" height="26" viewBox="0 0 24 26" fill="none" xmlns="http://www.w3.org/2000/svg">
<path d="M19.3526 0.710407L19.3658 0.710407L19.3781 0.70836L19.3782 0.708347L19.3784 0.708307L19.3786 0.708278L19.3788 0.708244L19.3795 0.70815L19.3886 0.706975C19.3975 0.705932 19.4118 0.704471 19.4311 0.703186C19.4698 0.700614 19.5286 0.698759 19.6048 0.702377C19.7571 0.709608 19.9785 0.738714 20.2461 0.827821C20.7794 1.00537 21.5066 1.42456 22.239 2.40469C22.9637 3.37451 23.0811 4.2763 23.0222 4.93234C22.9925 5.26185 22.9181 5.53108 22.8516 5.71706C22.8184 5.80997 22.7872 5.88182 22.7647 5.9297C22.7535 5.95363 22.7445 5.97154 22.7385 5.98307L22.7319 5.99551L22.7305 5.99804L22.7305 5.99807L22.7305 5.99806L22.7291 6.0005L20.1989 10.6392C20.0631 10.8882 19.6943 10.8796 19.5694 10.6218C19.1245 9.70337 18.3776 8.22997 17.5382 6.85914C17.1186 6.17379 16.6742 5.51152 16.2314 4.95611C15.7905 4.40316 15.3429 3.94548 14.915 3.68014C13.8326 3.00909 12.392 2.60035 10.9443 2.78578C9.49081 2.97196 8.04065 3.75622 6.951 5.45108C5.85106 7.16194 5.99108 8.96942 6.6486 10.4451C7.30281 11.9134 8.47854 13.0755 9.49172 13.5097C10.4583 13.924 11.1962 14.0681 11.8169 14.1894L11.8545 14.1968C12.4829 14.3197 12.9744 14.4217 13.4874 14.7531C15.1394 15.8203 15.6724 17.8659 14.692 19.5629C14.2053 20.4053 13.5144 20.9399 12.724 21.1781C11.932 21.4168 11.0287 21.361 10.1159 21.0014C9.35583 20.702 8.74163 20.2745 8.17404 19.5447C8.10973 19.462 7.94764 19.1921 7.70563 18.7648C7.46703 18.3435 7.15778 17.7822 6.80269 17.1289C6.09262 15.8225 5.20057 14.1509 4.32662 12.5025C3.45271 10.8541 2.5971 9.22919 1.95995 8.01638C1.64137 7.40998 1.37742 6.90662 1.19312 6.55486L0.979534 6.147L0.923407 6.03973L0.909035 6.01226L0.905506 6.00557L0.905401 6.00531L0.904867 6.00429C0.17947 4.55237 0.464102 3.1899 0.902861 2.38552C1.11254 2.00111 1.58661 1.57969 2.146 1.25191C2.70483 0.924457 3.3148 0.710405 3.77697 0.710405L19.3526 0.710407Z" fill="#6FFF90" stroke="#1A3E35" stroke-width="0.320141"/>
<path d="M3.84288 25.2896L3.82968 25.2896L3.81737 25.2916L3.81728 25.2917L3.81704 25.2917L3.81687 25.2917L3.81666 25.2918L3.81594 25.2918L3.80679 25.293C3.79794 25.2941 3.78366 25.2955 3.76433 25.2968C3.72565 25.2994 3.66679 25.3012 3.59063 25.2976C3.43837 25.2904 3.21695 25.2613 2.9493 25.1722C2.41602 24.9946 1.68888 24.5754 0.956476 23.5953C0.23177 22.6255 0.114296 21.7237 0.173275 21.0677C0.2029 20.7381 0.277285 20.4689 0.343825 20.2829C0.377067 20.19 0.408252 20.1182 0.430708 20.0703C0.441932 20.0464 0.450959 20.0285 0.456952 20.0169L0.463554 20.0045L0.464946 20.002L0.464962 20.0019L0.464981 20.0019L0.466316 19.9995L2.99653 15.3608C3.13236 15.1118 3.50117 15.1204 3.62607 15.3782C4.07096 16.2966 4.81779 17.77 5.65721 19.1408C6.07688 19.8262 6.52125 20.4885 6.96406 21.0439C7.40493 21.5968 7.85251 22.0545 8.28048 22.3199C9.3628 22.9909 10.8035 23.3996 12.2511 23.2142C13.7046 23.028 15.1548 22.2438 16.2444 20.5489C17.3444 18.838 17.2044 17.0306 16.5468 15.5549C15.8926 14.0866 14.7169 12.9245 13.7037 12.4903C12.7371 12.076 11.9992 11.9318 11.3785 11.8106L11.3409 11.8032C10.7125 11.6803 10.221 11.5783 9.70801 11.2469C8.05603 10.1797 7.52307 8.13405 8.50343 6.43708C8.99012 5.59465 9.68099 5.06004 10.4714 4.82186C11.2635 4.58321 12.1667 4.63897 13.0796 4.99857C13.8396 5.29798 14.4538 5.7255 15.0214 6.45528C15.0857 6.53796 15.2478 6.80789 15.4898 7.23519C15.7284 7.65644 16.0377 8.21779 16.3927 8.87107C17.1028 10.1775 17.9949 11.849 18.8688 13.4975C19.7427 15.1459 20.5983 16.7708 21.2355 17.9836C21.5541 18.59 21.818 19.0934 22.0023 19.4451L22.2159 19.853L22.272 19.9603L22.2864 19.9877L22.2899 19.9944L22.29 19.9947L22.2906 19.9957C23.016 21.4476 22.7313 22.8101 22.2926 23.6145C22.0829 23.9989 21.6088 24.4203 21.0494 24.7481C20.4906 25.0755 19.8806 25.2896 19.4185 25.2896L3.84288 25.2896Z" fill="#6FFF90" stroke="#1A3E35" stroke-width="0.320141"/>
</svg>
