<svg width="19" height="20" viewBox="0 0 19 20" fill="none" xmlns="http://www.w3.org/2000/svg">
<path d="M15.1125 0.402977L15.1228 0.402977L15.1324 0.401378L15.1325 0.401369L15.1327 0.401336L15.1328 0.401315L15.133 0.401289L15.1335 0.401214L15.1407 0.400297C15.1476 0.399482 15.1587 0.39834 15.1738 0.397337C15.204 0.39533 15.25 0.39388 15.3095 0.396705C15.4284 0.402353 15.6013 0.425081 15.8103 0.494667C16.2267 0.633311 16.7945 0.96066 17.3665 1.72605C17.9324 2.48339 18.0241 3.1876 17.9781 3.6999C17.955 3.95723 17.8969 4.16747 17.8449 4.3127C17.8189 4.38525 17.7946 4.44136 17.7771 4.47875C17.7683 4.49744 17.7612 4.51142 17.7566 4.52042L17.7514 4.53014L17.7503 4.53212L17.7503 4.53214L17.7503 4.53213L17.7502 4.53238L17.7493 4.53404L15.7734 8.15642C15.6673 8.35087 15.3793 8.34417 15.2818 8.14282C14.9344 7.42563 14.3512 6.27504 13.6957 5.20456C13.3679 4.66937 13.0209 4.15219 12.6751 3.71847C12.3309 3.28667 11.9813 2.92927 11.6471 2.72206C10.8019 2.19803 9.67693 1.87884 8.54645 2.02365C7.41139 2.16904 6.27895 2.78147 5.42804 4.10499C4.56909 5.44102 4.67843 6.85248 5.19189 8.00486C5.70277 9.15145 6.6209 10.0589 7.4121 10.398C8.16695 10.7215 8.74317 10.8341 9.22784 10.9288L9.25724 10.9346C9.74794 11.0305 10.1317 11.1102 10.5324 11.369C11.8224 12.2023 12.2386 13.7998 11.473 15.125C11.093 15.7828 10.5535 16.2003 9.9362 16.3863C9.31769 16.5727 8.61234 16.5291 7.89951 16.2483C7.30599 16.0145 6.82635 15.6807 6.38312 15.1108C6.3329 15.0462 6.20632 14.8354 6.01733 14.5017C5.83101 14.1728 5.58951 13.7344 5.31223 13.2243C4.75772 12.2041 4.06112 10.8988 3.37864 9.61145C2.69621 8.32422 2.02805 7.05534 1.5305 6.10825C1.28172 5.63471 1.0756 5.24163 0.931682 4.96694L0.764888 4.64844L0.721059 4.56468L0.709837 4.54322L0.707081 4.53799L0.706999 4.5378L0.706579 4.53699C0.140116 3.40318 0.362389 2.33923 0.705015 1.71108C0.868755 1.41089 1.23896 1.08181 1.67579 0.825842C2.11218 0.570129 2.58851 0.402975 2.94942 0.402975L15.1125 0.402977Z" fill="#6FFF90" stroke="#1A3E35" stroke-width="0.25"/>
<path d="M3.00093 19.597L2.99062 19.597L2.981 19.5986L2.98094 19.5986L2.98075 19.5987L2.98061 19.5987L2.98045 19.5987L2.97988 19.5988L2.97274 19.5997C2.96583 19.6005 2.95468 19.6017 2.93958 19.6027C2.90938 19.6047 2.86341 19.6061 2.80394 19.6033C2.68504 19.5976 2.51214 19.5749 2.30313 19.5053C1.88668 19.3667 1.31886 19.0393 0.746917 18.2739C0.18099 17.5166 0.0892542 16.8124 0.135312 16.3001C0.158446 16.0428 0.216534 15.8325 0.268495 15.6873C0.294453 15.6147 0.318806 15.5586 0.336342 15.5212C0.345107 15.5026 0.352156 15.4886 0.356836 15.4796L0.361992 15.4699L0.363079 15.4679L0.363091 15.4679L0.363106 15.4679L0.363223 15.4676L0.364149 15.466L2.34 11.8436C2.44607 11.6491 2.73409 11.6558 2.83162 11.8572C3.17904 12.5744 3.76224 13.7249 4.41774 14.7954C4.74547 15.3306 5.09248 15.8478 5.43828 16.2815C5.78255 16.7133 6.13207 17.0707 6.46627 17.2779C7.31146 17.802 8.43647 18.1212 9.56695 17.9763C10.702 17.831 11.8345 17.2185 12.6854 15.895C13.5443 14.559 13.435 13.1475 12.9215 11.9951C12.4106 10.8485 11.4925 9.94107 10.7013 9.60199C9.94646 9.27848 9.37024 9.16588 8.88556 9.07117L8.85616 9.06543C8.36546 8.96947 7.98166 8.88979 7.58104 8.63099C6.291 7.79764 5.8748 6.20016 6.64038 4.87499C7.02043 4.21714 7.55994 3.79966 8.17721 3.61366C8.79571 3.4273 9.50106 3.47084 10.2139 3.75165C10.8074 3.98547 11.2871 4.31932 11.7303 4.8892C11.7805 4.95377 11.9071 5.16457 12.0961 5.49824C12.2824 5.8272 12.5239 6.26556 12.8012 6.77571C13.3557 7.79587 14.0523 9.10123 14.7348 10.3885C15.4172 11.6758 16.0854 12.9446 16.5829 13.8917C16.8317 14.3653 17.0378 14.7584 17.1817 15.0331L17.3485 15.3516L17.3923 15.4353L17.4036 15.4568L17.4063 15.462L17.4064 15.4622L17.4068 15.463C17.9733 16.5968 17.751 17.6608 17.4084 18.2889C17.2446 18.5891 16.8744 18.9182 16.4376 19.1742C16.0012 19.4299 15.5249 19.597 15.164 19.597L3.00093 19.597Z" fill="#6FFF90" stroke="#1A3E35" stroke-width="0.25"/>
</svg>
