<svg width="160" height="160" viewBox="0 0 160 160" fill="none" xmlns="http://www.w3.org/2000/svg">
<rect width="160" height="160" fill="white"/>
<path d="M27.3232 66.1506C27.3232 45.3213 41.7865 31.4012 64.0846 31H145.193C140.356 41.6727 136.461 47.084 133.51 47.2339H63.3641C51.2204 47.2666 43.9099 54.3271 43.9099 66.1506C43.9099 77.8459 51.1975 85.407 62.9546 85.454L94.0172 85.407C98.5287 85.454 102.395 89.3417 102.395 94.0223C102.395 98.703 98.875 101.41 94.4483 101.635L63.8574 101.67C42.0634 101.67 27.6581 87.2747 27.329 66.8643L27.3232 66.1506Z" fill="black"/>
<path d="M131.87 93.8494C131.87 114.679 117.407 128.599 95.1088 129L14 129C18.8378 118.327 22.7323 112.916 25.6834 112.766L95.8292 112.766C107.973 112.733 115.284 105.673 115.284 93.8494C115.284 82.1541 107.996 74.593 96.2388 74.546L65.1762 74.593C60.6646 74.546 56.7982 70.6583 56.7982 65.9777C56.7982 61.297 60.3184 58.5899 64.745 58.365L95.336 58.3296C117.13 58.3296 131.535 72.7253 131.864 93.1357L131.87 93.8494Z" fill="black"/>
</svg>
