<svg width="62" height="22" viewBox="0 0 62 22" fill="none" xmlns="http://www.w3.org/2000/svg">
<g clip-path="url(#clip0_114_955)">
<path d="M23.6315 12.3516V10.9213H27.0197C27.5378 10.9213 27.942 10.774 28.2321 10.4796C28.522 10.1851 28.6672 9.79693 28.6672 9.317C28.6672 8.83704 28.522 8.44122 28.2321 8.1544C27.942 7.86757 27.5378 7.72417 27.0197 7.72417H22.5527V14.7026H21.0903V6.24512H27.0197C27.5072 6.24512 27.942 6.31682 28.3256 6.46022C28.7081 6.60364 29.0314 6.80538 29.2947 7.06542C29.558 7.32548 29.7592 7.64098 29.8985 8.0129C30.0378 8.38481 30.1074 8.80358 30.1074 9.26919C30.1074 9.7348 30.0378 10.143 29.8985 10.5197C29.7592 10.8955 29.558 11.2196 29.2947 11.4911C29.0314 11.7626 28.7091 11.9739 28.3256 12.125C27.9432 12.276 27.5072 12.3516 27.0197 12.3516H23.6315Z" fill="white"/>
<path d="M34.9071 14.7007V11.4901L30.4287 6.24512H32.4127L35.6969 10.1411L38.9917 6.24512H40.8717L36.3809 11.4901V14.7007H34.9071Z" fill="white"/>
<path d="M45.9526 14.7007V7.72225H42.0718V6.24512H51.3125V7.72225H47.4262V14.7007H45.9526Z" fill="white"/>
<path d="M60.5322 6.24512H62.0002V14.7007H60.5322V6.24512Z" fill="white"/>
<path d="M54.1975 14.7007V11.0408H59.6591V9.73191H54.1975V6.24512H52.7295V14.7007H54.1975Z" fill="white"/>
<path d="M10.5449 8.45532C10.5449 9.62269 9.60054 10.5692 8.43585 10.5692V12.6831C10.7652 12.6831 12.6539 10.7901 12.6539 8.45532C12.6539 6.12059 10.7652 4.22754 8.43585 4.22754C7.66797 4.22754 6.94685 4.43311 6.32681 4.79354C5.06579 5.52399 4.21777 6.89022 4.21777 8.45532V19.0248L6.1141 20.9254L6.32681 21.1386V8.45532C6.32681 7.28794 7.27116 6.34143 8.43585 6.34143C9.60054 6.34143 10.5449 7.28794 10.5449 8.45532Z" fill="white"/>
<path d="M8.43617 0C6.89946 0 5.4591 0.412069 4.21808 1.132C3.4235 1.59187 2.7119 2.17795 2.10904 2.86346C0.796495 4.35397 0 6.31202 0 8.45555V14.7972L2.10904 16.9111V8.45555C2.10904 6.57781 2.92366 4.89034 4.21808 3.7287C4.82666 3.18374 5.54112 2.7535 6.32713 2.47624C6.98626 2.24104 7.69691 2.11389 8.43617 2.11389C11.9303 2.11389 14.7633 4.95343 14.7633 8.45555C14.7633 11.9577 11.9303 14.7972 8.43617 14.7972V16.9111C13.0959 16.9111 16.8723 13.125 16.8723 8.45555C16.8723 3.78606 13.0959 0 8.43617 0Z" fill="white"/>
</g>
<defs>
<clipPath id="clip0_114_955">
<rect width="62" height="21.1385" fill="white"/>
</clipPath>
</defs>
</svg>
