<svg xmlns="http://www.w3.org/2000/svg" xmlns:xlink="http://www.w3.org/1999/xlink" width="500" zoomAndPan="magnify" viewBox="0 0 375 374.999991" height="500" preserveAspectRatio="xMidYMid meet" version="1.0"><defs><clipPath id="69977e42e4"><path d="M 37.90625 0 L 337.15625 0 L 337.15625 300 L 37.90625 300 Z M 37.90625 0 " clip-rule="nonzero"/></clipPath></defs><path fill="#e0e5eb" d="M 224.894531 150 C 224.894531 170.707031 208.148438 187.496094 187.496094 187.496094 L 187.496094 224.996094 C 228.800781 224.996094 262.289062 191.414062 262.289062 150 C 262.289062 108.582031 228.800781 75 187.496094 75 C 173.878906 75 161.09375 78.644531 150.097656 85.039062 C 127.738281 97.996094 112.699219 122.234375 112.699219 150 L 112.699219 337.496094 L 146.324219 371.214844 L 150.097656 374.996094 L 150.097656 150 C 150.097656 129.289062 166.84375 112.5 187.496094 112.5 C 208.148438 112.5 224.894531 129.289062 224.894531 150 Z M 224.894531 150 " fill-opacity="1" fill-rule="nonzero"/><g clip-path="url(#69977e42e4)"><path fill="#e0e5eb" d="M 187.496094 0.00390625 C 160.246094 0.00390625 134.707031 7.3125 112.703125 20.085938 C 98.613281 28.242188 85.996094 38.640625 75.304688 50.800781 C 52.03125 77.242188 37.90625 111.976562 37.90625 150.003906 L 37.90625 262.5 L 75.304688 300 L 75.304688 150.003906 C 75.304688 116.691406 89.75 86.757812 112.703125 66.148438 C 123.492188 56.480469 136.164062 48.851562 150.097656 43.933594 C 161.789062 39.757812 174.386719 37.503906 187.496094 37.503906 C 249.453125 37.503906 299.6875 87.875 299.6875 150.003906 C 299.6875 212.128906 249.453125 262.5 187.496094 262.5 L 187.496094 300 C 270.125 300 337.085938 232.835938 337.085938 150.003906 C 337.085938 67.167969 270.125 0.00390625 187.496094 0.00390625 Z M 187.496094 0.00390625 " fill-opacity="1" fill-rule="nonzero"/></g></svg>