<svg width="16" height="16" viewBox="0 0 16 16" fill="none" xmlns="http://www.w3.org/2000/svg">
<path d="M15.1668 11.666C15.1668 11.9393 14.9402 12.166 14.6668 12.166H10.0002V12.3327C10.0002 13.3327 9.40016 13.666 8.66683 13.666H4.66683C3.9335 13.666 3.3335 13.3327 3.3335 12.3327V12.166H1.3335C1.06016 12.166 0.833496 11.9393 0.833496 11.666C0.833496 11.3927 1.06016 11.166 1.3335 11.166H3.3335V10.9993C3.3335 9.99935 3.9335 9.66602 4.66683 9.66602H8.66683C9.40016 9.66602 10.0002 9.99935 10.0002 10.9993V11.166H14.6668C14.9402 11.166 15.1668 11.3927 15.1668 11.666Z" fill="white" fill-opacity="0.25"/>
<path d="M15.1668 4.33398C15.1668 4.60732 14.9402 4.83398 14.6668 4.83398H12.6668V5.00065C12.6668 6.00065 12.0668 6.33398 11.3335 6.33398H7.3335C6.60016 6.33398 6.00016 6.00065 6.00016 5.00065V4.83398H1.3335C1.06016 4.83398 0.833496 4.60732 0.833496 4.33398C0.833496 4.06065 1.06016 3.83398 1.3335 3.83398H6.00016V3.66732C6.00016 2.66732 6.60016 2.33398 7.3335 2.33398H11.3335C12.0668 2.33398 12.6668 2.66732 12.6668 3.66732V3.83398H14.6668C14.9402 3.83398 15.1668 4.06065 15.1668 4.33398Z" fill="white" fill-opacity="0.25"/>
</svg>
