<svg width="64" height="64" viewBox="0 0 64 64" fill="none" xmlns="http://www.w3.org/2000/svg">
<path opacity="0.4" d="M58.6668 28.6947C58.6668 27.4414 57.6535 26.4014 56.3735 26.4014H7.62683C6.34683 26.4014 5.3335 27.4147 5.3335 28.6947C5.3335 44.4014 16.2935 55.3614 32.0002 55.3614C47.7068 55.3614 58.6668 44.3747 58.6668 28.6947Z" fill="#6FFF90"/>
<path d="M33.2264 42.4006L40.8264 34.8273C41.5997 34.054 41.5997 32.774 40.8264 32.0006C40.0531 31.2273 38.7731 31.2273 37.9997 32.0006L33.8397 36.1606V10.6406C33.8397 9.54729 32.9331 8.64062 31.8397 8.64062C30.7464 8.64062 29.8397 9.54729 29.8397 10.6406V36.1606L25.6531 32.0006C24.8797 31.2273 23.5997 31.2273 22.8264 32.0006C22.4264 32.4006 22.2397 32.9073 22.2397 33.414C22.2397 33.9206 22.4264 34.4273 22.8264 34.8273L30.4264 42.4006C31.1997 43.2006 32.4531 43.2006 33.2264 42.4006Z" fill="#6FFF90"/>
</svg>
